<?xml version="1.0" encoding="utf-8"?>
<!-- Generator: Adobe Illustrator 15.0.0, SVG Export Plug-In . SVG Version: 6.00 Build 0)  -->
<!DOCTYPE svg PUBLIC "-//W3C//DTD SVG 1.1//EN" "http://www.w3.org/Graphics/SVG/1.1/DTD/svg11.dtd">
<svg version="1.1" id="Layer_1" xmlns="http://www.w3.org/2000/svg" xmlns:xlink="http://www.w3.org/1999/xlink" x="0px" y="0px"
	 width="643px" height="226.77px" viewBox="0 0 643 226.77" enable-background="new 0 0 643 226.77" xml:space="preserve">
<g>
	<path fill="#FFFFFF" d="M211.719,210.153H19.994V18.427h191.726V210.153z M21.837,208.308h188.039V20.271H21.837V208.308z"/>
	<path fill="#FFFFFF" d="M175.388,101.57l4.912-3.585c-1.857-1.99-3.849-4.379-3.849-8.229c0-2.92,1.992-6.106,4.512-7.434
		c-1.327-1.592-3.452-3.05-6.503-3.05c-3.982,0-7.302,2.92-7.302,6.768c0,2.654,1.727,4.912,3.719,5.973
		C170.877,95.728,172.603,99.045,175.388,101.57 M149.11,75.421l4.114-7.302h-6.106c0,1.327-1.195,2.787-2.657,2.787
		c-1.589,0-2.651-1.06-2.651-2.787h-5.444c0,1.593-1.193,2.787-2.654,2.787c-1.46,0-2.655-1.193-2.655-2.787h-6.106l3.585,7.034
		c2.789-0.264,5.441-0.396,8.096-0.396C141.541,74.758,145.791,75.022,149.11,75.421 M137.958,140.193
		c-0.663-1.193-1.327-2.656-1.327-5.309c0-3.451,1.99-6.372,6.24-8.23c2.787-1.328,4.908-2.521,8.627-4.379
		c8.759-4.512,11.813-13.008,11.813-21.769c0-4.38-1.196-7.832-2.654-10.751c0.395,2.39,0.794,4.381,0.794,6.77
		c0,9.159-3.184,15.928-11.547,20.042c-5.307,2.653-7.965,3.717-11.151,5.31c-4.509,2.388-7.034,5.442-7.034,9.159
		C131.72,135.68,134.107,139.132,137.958,140.193 M132.782,138.469c-1.458-1.462-3.051-4.116-3.051-7.566
		c0-4.379,2.918-8.097,8.095-10.751c4.513-2.124,7.167-3.188,11.148-5.043c8.365-4.114,10.885-11.15,10.885-18.715
		c0-7.302-2.388-11.018-4.38-13.408c1.46,2.789,1.86,6.106,1.86,8.896c0,8.097-2.389,15.129-11.813,18.847
		c-4.779,1.99-7.833,2.653-11.946,4.511c-6.504,3.055-9.025,6.639-9.025,11.946C124.553,132.229,127.737,137.007,132.782,138.469
		 M127.737,137.406c-2.256-1.856-5.176-4.911-5.176-10.353c0-5.708,2.388-9.954,9.822-13.14c4.781-1.99,7.302-2.919,11.815-4.646
		c9.556-3.583,11.546-10.619,11.546-17.522c0-6.634-2.389-10.486-5.309-13.006c1.726,2.124,2.788,5.708,2.788,9.423
		c0,8.759-3.319,13.671-12.743,16.991c-3.85,1.194-7.963,2.388-12.212,3.98c-7.698,2.919-11.68,7.167-11.68,14.336
		C116.589,130.902,122.296,136.478,127.737,137.406 M122.429,136.478c-5.308-2.655-7.832-8.361-7.832-13.407
		c0-7.3,4.513-12.476,12.079-15.265c4.649-1.725,8.364-2.785,13.01-4.379c9.026-3.186,11.946-7.433,11.946-15.529
		c0-4.646-1.727-8.626-4.513-10.883c0.928,1.061,1.194,2.388,1.194,3.583c0,2.257-1.194,3.317-2.92,3.317
		c-1.063,0-2.125-0.664-2.256-1.724c0.53,0.396,0.93,0.53,1.462,0.53c1.458,0,2.254-1.063,2.254-2.523
		c0-2.256-2.123-3.452-4.246-3.715c-1.859-0.266-3.852-0.266-6.106-0.266c-2.254,0-4.38,0.132-7.166,0.266
		c1.724,2.388,7.432,1.725,9.157,2.919c-1.462-0.131-2.92-0.131-4.382,0.264c0,0.932-0.396,1.992-1.325,1.992
		c-1.726,0-2.523-1.857-3.715-5.176l-6.771,0.532c-1.061,0.131-1.46,0.531-1.327,1.327l0.665,6.636c0,0.264,0.264,0.397,0.53,0.397
		c0.265,0,0.529-0.133,0.664-0.533c0.266-0.53,1.062-1.724,3.052-1.724c2.919,0,5.176,2.655,5.307,5.707
		c-1.061-1.458-3.45-2.787-7.432-2.787c-3.052,0-5.573,0.93-9.555,0.93c-4.249,0-6.637-1.593-6.637-3.583
		c0-0.929,0.132-1.461,0.662-2.125c-1.725,0.796-3.052,2.258-3.052,4.647c0,2.919,2.124,5.975,8.362,5.975
		c5.707,0,8.362-3.586,13.539-3.586c2.389,0,3.585,1.194,3.585,2.523c0,1.194-1.065,2.257-2.922,2.257
		c-2.256,0-3.847-1.194-4.644-2.39c-0.133-0.266-0.266-0.397-0.532-0.397c-0.397,0-0.532,0.265-0.532,0.53l0.134,6.37
		c0,0.796,0.397,1.196,1.327,1.062c3.981-0.399,8.095-0.929,11.947-1.194c7.167-0.663,12.079-5.444,12.079-10.752
		c0-0.797,0-1.462-0.134-2.256c0.662,1.062,0.928,2.124,0.928,3.45c0,4.912-2.654,8.628-11.147,10.886
		c-4.515,1.193-7.832,1.724-11.683,2.654c-10.221,2.388-16.856,10.219-16.856,18.98
		C108.625,128.116,114.333,135.416,122.429,136.478 M77.963,88.561c0.53-1.193,0.664-2.256,0.664-3.053
		c0-1.726-0.797-3.316-1.593-3.98c1.991,0,3.716,1.458,3.716,3.451C80.75,86.835,79.556,88.031,77.963,88.561 M102.387,120.151
		l4.246-2.256c1.461-8.894,6.77-15.131,16.061-17.389c-4.91,0.265-9.158,0.398-15.13,0.664c-6.371,0.264-16.856,1.063-24.157,1.593
		c-1.461,0.133-2.389-0.4-2.788-1.593c-0.398-1.327-1.194-3.85-1.327-5.31c-0.134-1.195,0.133-1.992,1.194-2.786
		c2.123-1.462,4.247-3.187,4.247-6.77c0-3.849-3.319-6.37-6.371-6.37c-1.062,0-1.857,0.131-2.521,0.396
		c-0.798-0.528-1.593-0.928-3.188-0.928c-2.256,0-4.246,1.46-4.778,2.653c-3.849-0.263-6.901,2.523-6.637,6.24
		c0.532-0.532,1.593-1.061,2.789-1.061c1.459,0,2.788,1.061,2.788,2.653c0,1.46-0.267,3.32-0.267,5.308
		c0,6.109,4.912,9.295,4.912,12.479c0,1.593-1.194,2.921-2.789,2.921c0.931,3.319,3.982,5.043,8.097,5.043
		c2.656,0,5.045-0.266,8.894-0.266C96.679,115.372,101.456,116.567,102.387,120.151 M143.266,157.716h1.331
		c-0.137-4.249-1.196-7.17-2.92-10.222c-0.931-1.727-2.125-3.583-3.056-4.78c-0.53-0.795-1.196-1.06-1.99-1.06
		c-0.532,0-0.929,0.396-0.532,1.06c1.064,1.727,2.522,4.384,4.381,8.497c-1.593,0.264-1.991,1.062-1.991,2.387
		C138.49,155.724,140.481,157.716,143.266,157.716 M72.787,89.092c0.132-3.716-1.459-5.707-3.716-6.636
		c0.397-0.134,0.929-0.4,1.726-0.4c1.725,0,3.583,1.462,3.583,3.719C74.38,86.968,73.981,88.295,72.787,89.092 M157.869,182.534
		c-0.53-1.193-2.257-2.387-4.381-2.387c-1.195,0-1.99,0.263-2.522,0.529c0.133-1.062,1.196-2.257,3.319-2.257
		C156.805,178.42,158.132,180.41,157.869,182.534 M157.072,188.244c-0.796-0.932-2.122-1.727-3.848-1.727
		c-2.125,0-3.186,0.929-3.718,1.593c-0.264-1.593,1.062-3.583,3.585-3.583C155.744,184.527,157.072,186.383,157.072,188.244
		 M62.7,124.928c0.928-2.257,3.052-3.848,5.574-4.378c0.53-0.799,1.194-1.46,1.858-1.993L65.62,99.709
		c-0.531-1.325-0.929-2.653-0.929-4.514c0-1.988,0.398-3.98,0.398-5.041c0-0.93-0.531-1.194-1.062-1.194
		c-0.399,0-0.664,0-0.796,0.131v0.532c0,3.051-1.86,5.441-4.912,5.441s-5.443-2.521-5.443-5.441c0-2.919,2.391-5.312,5.443-5.312
		c0.531,0,1.194,0,1.991,0.266c0.929-2.387,3.849-4.513,6.901-4.113c-2.123-2.656-5.309-4.248-8.892-4.248
		c-7.699,0-13.803,5.575-13.803,13.407c0,7.298,5.972,13.14,13.404,13.273L62.7,124.928z M83.273,153.467
		c1.992,0,4.114-1.063,6.105-3.052c3.583-3.451,8.628-8.63,11.681-10.621c2.653-1.726,4.379-2.388,6.105-2.388
		c1.061,0,1.859,0.267,2.655,1.062l4.513-3.452c-5.177-3.849-7.565-8.893-7.701-15.131c-7.166,3.849-12.341,9.16-18.315,14.201
		c-1.062,0.798-1.593,1.193-2.522,1.193s-1.725-0.928-3.318-2.52c-1.327-1.327-1.593-2.124-1.593-3.054
		c0-1.591,0.53-2.123,0.53-4.248c0-4.245-3.316-6.636-6.502-6.636c-2.656,0-4.646,1.461-5.309,3.32
		c-3.584,0.264-5.842,2.919-5.842,5.704c0,0.665,0.134,1.198,0.267,1.593c-1.327,0.799-2.656,2.391-2.656,4.516
		c0,2.257,1.194,4.38,3.187,5.044c-0.267-0.399-0.399-0.932-0.399-1.594c0-1.193,1.062-2.258,2.522-2.258
		c1.194,0,1.99,0.401,2.92,1.46c1.195,1.594,2.389,3.055,4.379,4.781c1.86,1.593,3.982,2.652,5.974,3.849
		c1.195,0.796,2.122,1.859,2.122,3.451c0,1.062-0.795,2.256-2.387,2.654C80.352,152.803,81.68,153.467,83.273,153.467
		 M75.707,127.584c-0.133-2.656-2.123-4.778-4.646-5.309c0.399-0.267,1.063-0.663,2.125-0.663c1.858,0,3.319,1.591,3.319,3.315
		C76.504,126.257,76.105,126.918,75.707,127.584 M90.44,197.4c-0.531-0.664-0.795-1.328-0.795-2.123
		c0-1.592,1.326-2.787,3.185-2.787c2.92,0,4.513,3.187,8.363,3.187c4.38,0,6.503-3.187,10.484-3.187
		c1.992,0,4.781,1.195,4.781,3.716c0,0.399-0.136,0.798-0.399,1.063c4.513,0,7.697-3.85,7.697-10.222
		c0-8.895-0.264-12.477-0.397-17.388c3.452-0.133,6.768-1.857,6.236-7.3c-0.926,0.796-1.989,1.194-3.184,1.194
		c-1.593,0-2.788-1.194-2.788-2.921c0-0.797,0-1.726,0.132-2.654l15.531-0.399c-1.46-0.794-2.521-2.388-2.521-4.244
		c0-1.329,0.531-2.256,1.593-2.79c-1.462-3.052-2.656-5.44-4.114-7.695c-0.798-1.196-1.726-2.392-3.584-2.392
		c-4.116-0.134-12.477,1.062-16.726,2.523c-3.184,1.06-6.238,3.45-6.238,8.89c0,5.046,1.725,13.938,1.593,27.876
		c0,1.992-0.531,2.655-1.725,2.919c-1.063,0.267-3.851,0.531-5.577,0.267c-0.927-0.135-1.725-0.796-2.256-2.786
		c-0.663-2.789-2.654-5.576-6.635-5.576c-3.585,0-6.769,2.656-6.238,6.636c-1.726,1.062-2.524,2.789-2.524,4.38
		c0,1.595,0.532,2.921,1.195,3.716c-0.397,0.931-0.53,1.461-0.53,2.391C84.999,195.013,87.919,197.4,90.44,197.4 M71.724,131.168
		c-0.796-1.594-2.521-2.521-4.513-2.521c-0.795,0-1.459,0.133-1.99,0.265c0.265-1.064,1.46-1.994,3.187-1.994
		C70.665,126.918,72.124,128.647,71.724,131.168 M94.955,182.534c-0.533-1.193-2.257-2.387-4.381-2.387
		c-1.195,0-1.99,0.263-2.522,0.529c0.132-1.062,1.194-2.257,3.319-2.257C93.891,178.42,95.218,180.41,94.955,182.534 M83.67,194.084
		c-0.396-0.798-0.53-1.594-0.53-2.391c0-0.796,0.134-1.46,0.398-2.124c-0.663-1.194-1.062-2.521-1.062-3.982
		c0-1.991,0.93-3.847,2.256-5.043l-8.228-35.706c-1.329-0.661-2.656-1.459-3.717-2.388c-1.859-1.594-2.92-2.787-4.646-4.777
		c-0.531-0.531-0.929-0.797-1.459-0.797c-0.797,0-1.329,0.53-1.062,1.593l1.725,8.229l3.583,2.521l9.955,42.739L83.67,194.084z
		 M94.158,188.244c-0.799-0.932-2.125-1.727-3.851-1.727c-2.125,0-3.186,0.929-3.717,1.593c-0.264-1.593,1.062-3.583,3.585-3.583
		C92.829,184.527,94.158,186.383,94.158,188.244 M28.587,198.197l8.096-6.24l9.955-42.739l3.584-2.521l7.963-34.244l-1.725-7.963
		c-1.992-0.398-3.718-0.93-5.177-1.726L28.587,198.197z M153.355,197.4c-0.53-0.664-0.796-1.328-0.796-2.123
		c0-1.592,1.327-2.787,3.186-2.787c2.92,0,4.513,3.187,8.363,3.187c4.377,0,6.503-3.187,10.484-3.187
		c1.992,0,4.779,1.195,4.779,3.716c0,0.399-0.133,0.798-0.398,1.063c4.513,0,7.698-3.85,7.698-10.222
		c0-8.494-0.794-17.917-1.726-27.343c2.39-0.53,4.646-2.919,4.646-5.974c0-1.061-0.395-2.257-1.06-3.316
		c-0.667,0.929-1.86,1.725-3.849,2.256c-2.788,0.796-6.239,1.196-8.763,1.196c-5.707,0-7.564-0.4-10.218-1.196
		c-0.136-3.584-2.39-6.505-4.513-8.494c3.317,1.326,4.777,1.989,10.086,1.989c16.99,0,27.475-11.414,27.475-24.422
		c0-9.425-5.972-13.804-11.415-16.99l-5.043,3.583c6.105,2.787,10.086,6.901,10.086,12.476c0,6.104-4.908,10.488-10.616,10.488
		c-6.108,0-10.884-4.384-10.884-10.355c0-4.511,2.121-7.83,6.104-11.016c3.982-3.184,10.089-7.034,13.408-10.617
		c1.726-1.86,3.185-4.781,3.051-7.037c2.256-1.062,3.983-3.316,3.983-6.238c0-3.847-3.715-6.768-7.697-6.768
		c-2.392,0-5.044,1.458-6.374,3.05c2.392,0.931,4.648,4.114,4.648,7.434c0,2.789-1.725,5.176-3.717,7.167
		c-3.053,3.056-7.034,5.312-11.415,8.894c-5.31,4.38-8.497,9.556-8.497,15.398c0,8.097,6.24,15.662,16.061,15.662
		c3.187,0,5.709-0.663,7.568-1.859c-3.186,3.717-9.157,5.575-15.396,5.575c-5.445,0-9.16-0.798-13.14-3.716
		c-3.585-2.654-6.373-8.894-6.24-13.539c-2.919,1.726-6.373,3.317-9.292,4.646c-4.116,1.991-5.442,4.114-5.442,7.697
		c0,4.779,3.319,8.497,4.776,11.284c1.993,3.582,2.656,6.768,2.92,10.086c0.799,8.097,5.445,11.815,13.672,11.815
		c3.719,0,8.626-0.268,10.62-0.533c0.796,3.718,1.726,8.097,1.726,11.416c0,1.992-0.531,2.655-1.726,2.919
		c-1.061,0.267-3.85,0.531-5.574,0.267c-0.927-0.135-1.727-0.796-2.258-2.786c-0.661-2.789-2.654-5.576-6.635-5.576
		c-3.585,0-6.77,2.656-6.239,6.636c-1.726,1.062-2.522,2.789-2.522,4.38c0,1.595,0.529,2.921,1.196,3.716
		c-0.4,0.931-0.532,1.461-0.532,2.391C147.913,195.013,150.834,197.4,153.355,197.4"/>
	<path fill="#FFFFFF" d="M540.558,210.155h18.918v-6.253h-11.011v-4.438h10.651v-6.089h-10.651v-4.397h11.011v-6.253h-18.918
		V210.155z M520.873,210.799c6.456,0,11.819-3.105,11.819-10.77v-17.305h-7.907v16.579c0,3.104-1.693,4.476-3.912,4.476
		c-2.215,0-3.908-1.371-3.908-4.476v-16.579h-7.908v17.305C509.057,207.693,514.422,210.799,520.873,210.799 M492.48,210.799
		c4.88,0,8.268-1.491,9.921-2.342v-12.14h-7.704v7.423c-0.565,0.121-1.17,0.2-1.775,0.2c-3.066,0-6.454-2.336-6.454-7.503
		c0-5.564,2.984-8.308,8.108-8.308c2.825,0,5.243,0.969,6.736,1.775v-6.456c-1.615-0.725-4.276-1.733-7.904-1.733
		c-9.319,0-15.572,5.768-15.572,14.722C477.836,205.396,484.812,210.799,492.48,210.799 M457.91,198.858l2.701-10.124h0.364
		l2.706,10.124H457.91z M466.702,210.155h8.109l-8.229-27.431h-11.576l-8.188,27.431h8.106l1.493-5.688h8.753L466.702,210.155z
		 M429.513,195.39v-6.816h3.187c2.141,0,3.389,1.655,3.389,3.388c0,1.737-1.248,3.429-3.389,3.429H429.513z M421.607,210.155h7.905
		v-9.642h2.017l4.76,9.642h8.914l-5.039-8.473c-0.525-0.888-1.172-1.693-1.535-1.935l0.041-0.164
		c2.419-1.087,5.849-3.146,5.849-7.823c0-4.924-3.913-9.036-10.325-9.036h-12.586V210.155z M401.318,195.39v-6.774h3.106
		c1.732,0,3.306,1.45,3.306,3.386c0,1.978-1.573,3.389-3.306,3.389H401.318z M393.413,210.155h7.905v-8.877h4.034
		c6.413,0,10.406-4.071,10.406-9.115c0-5.041-3.993-9.438-10.406-9.438h-11.939V210.155z M349.245,210.155h7.907v-16.457h0.119
		l8.312,16.457h9.639v-27.431h-7.904v16.376h-0.122l-8.227-16.376h-9.724V210.155z M333.273,210.155h7.905v-27.431h-7.905V210.155z
		 M303.465,210.799c6.452,0,11.816-3.105,11.816-10.77v-17.305h-7.904v16.579c0,3.104-1.691,4.476-3.912,4.476
		c-2.22,0-3.912-1.371-3.912-4.476v-16.579h-7.906v17.305C291.646,207.693,297.01,210.799,303.465,210.799 M271.964,210.155h7.905
		v-21.018h6.817v-6.413h-21.58v6.413h6.858V210.155z M253.973,210.598c3.266,0,6.01-0.847,7.663-1.692v-6.899
		c-1.573,0.847-3.387,1.572-6.252,1.572s-7.018-2.178-7.018-7.141c0-4.96,3.792-7.3,7.464-7.3c2.499,0,4.233,0.565,5.765,1.331
		v-6.815c-1.612-0.726-3.627-1.292-6.857-1.292c-8.106,0-15.003,5.327-15.003,14.076
		C239.734,205.192,245.908,210.598,253.973,210.598"/>
	<path fill="#FFFFFF" d="M602.798,169.079h18.917v-6.252h-11.012v-4.438h10.646v-6.089h-10.646v-4.399h11.012v-6.252h-18.917
		V169.079z M581.379,154.315v-6.817h3.188c2.136,0,3.387,1.654,3.387,3.389c0,1.736-1.251,3.429-3.387,3.429H581.379z
		 M573.473,169.079h7.906v-9.64h2.016l4.76,9.64h8.915l-5.043-8.471c-0.526-0.888-1.169-1.693-1.531-1.937l0.039-0.16
		c2.421-1.09,5.85-3.146,5.85-7.825c0-4.923-3.913-9.037-10.328-9.037h-12.583V169.079z M553.788,169.726
		c6.453,0,11.82-3.108,11.82-10.77v-17.307H557.7v16.58c0,3.106-1.694,4.479-3.912,4.479c-2.221,0-3.914-1.372-3.914-4.479v-16.58
		h-7.903v17.307C541.971,166.617,547.336,169.726,553.788,169.726 M522.287,169.079h7.906v-21.015h6.812v-6.415h-21.578v6.415h6.859
		V169.079z M504.297,169.521c3.268,0,6.009-0.846,7.663-1.691v-6.899c-1.573,0.846-3.389,1.573-6.249,1.573
		c-2.867,0-7.02-2.178-7.02-7.139c0-4.963,3.789-7.301,7.46-7.301c2.502,0,4.235,0.563,5.767,1.331v-6.817
		c-1.612-0.726-3.629-1.291-6.854-1.291c-8.108,0-15.006,5.325-15.006,14.078C490.058,164.115,496.23,169.521,504.297,169.521
		 M465.532,169.079h18.92v-6.252H473.44v-4.438h10.648v-6.089H473.44v-4.399h11.012v-6.252h-18.92V169.079z M445.647,169.079h7.905
		v-21.015h6.82v-6.415h-21.58v6.415h6.854V169.079z M425.725,169.079h7.904v-27.43h-7.904V169.079z M393.739,141.649v27.43h7.905
		v-10.729h8.106v10.729h7.906v-27.43h-7.906v10.49h-8.106v-10.49H393.739z M380.102,169.521c3.271,0,6.012-0.846,7.664-1.691v-6.899
		c-1.573,0.846-3.388,1.573-6.25,1.573c-2.865,0-7.018-2.178-7.018-7.139c0-4.963,3.79-7.301,7.461-7.301
		c2.502,0,4.233,0.563,5.768,1.331v-6.817c-1.613-0.726-3.629-1.291-6.856-1.291c-8.108,0-15.006,5.325-15.006,14.078
		C365.864,164.115,372.038,169.521,380.102,169.521 M346.059,154.315v-6.817h3.187c2.138,0,3.389,1.654,3.389,3.389
		c0,1.736-1.251,3.429-3.389,3.429H346.059z M338.154,169.079h7.904v-9.64h2.017l4.758,9.64h8.919l-5.044-8.471
		c-0.522-0.888-1.169-1.693-1.534-1.937l0.043-0.16c2.419-1.09,5.849-3.146,5.849-7.825c0-4.923-3.913-9.037-10.325-9.037h-12.586
		V169.079z M317.016,157.784l2.705-10.125h0.365l2.7,10.125H317.016z M325.811,169.079h8.107l-8.228-27.43h-11.577l-8.19,27.43
		h8.112l1.488-5.687h8.753L325.811,169.079z M273.615,141.649v27.43h7.908v-10.608h10.729v-6.092h-10.729v-4.478h10.851v-6.252
		H273.615z M253.489,162.708c-3.511,0-5.284-2.825-5.284-7.343s1.773-7.34,5.284-7.34c3.55,0,5.202,2.822,5.202,7.34
		S257.039,162.708,253.489,162.708 M253.489,169.726c8.188,0,13.672-5.205,13.672-14.36s-5.484-14.36-13.672-14.36
		c-8.149,0-13.755,5.205-13.755,14.36S245.34,169.726,253.489,169.726"/>
	<path fill="#FFFFFF" d="M401.402,128.005h7.904v-10.043l9.479-17.383h-8.754l-4.478,9.801h-0.159l-4.316-9.801h-8.957l9.281,17.383
		V128.005z M376.07,128.005h7.906V106.99h6.815v-6.411h-21.581v6.411h6.859V128.005z M352.028,128.005h17.708v-6.494h-9.801v-20.932
		h-7.907V128.005z M332.348,128.652c6.45,0,11.816-3.105,11.816-10.769v-17.305h-7.907v16.576c0,3.104-1.694,4.478-3.909,4.478
		c-2.219,0-3.914-1.373-3.914-4.478v-16.576h-7.907v17.305C320.526,125.547,325.893,128.652,332.348,128.652 M307.093,128.449
		c3.269,0,6.013-0.849,7.667-1.694v-6.898c-1.571,0.851-3.388,1.574-6.254,1.574c-2.862,0-7.018-2.179-7.018-7.14
		c0-4.96,3.793-7.301,7.462-7.301c2.499,0,4.238,0.564,5.768,1.331v-6.816c-1.612-0.725-3.628-1.29-6.856-1.29
		c-8.106,0-15.005,5.325-15.005,14.076C292.856,123.045,299.028,128.449,307.093,128.449 M272.931,116.713l2.701-10.127h0.364
		l2.704,10.127H272.931z M281.722,128.005h8.11l-8.229-27.426h-11.576l-8.188,27.426h8.106l1.494-5.686h8.753L281.722,128.005z
		 M241.348,100.579v27.426h7.907v-10.607h10.729v-6.091h-10.729v-4.478h10.85v-6.25H241.348z"/>
</g>
</svg>
