<?xml version="1.0" encoding="utf-8"?>
<!-- Generator: Adobe Illustrator 15.0.0, SVG Export Plug-In . SVG Version: 6.00 Build 0)  -->
<!DOCTYPE svg PUBLIC "-//W3C//DTD SVG 1.1//EN" "http://www.w3.org/Graphics/SVG/1.1/DTD/svg11.dtd">
<svg version="1.1" id="Layer_1" xmlns="http://www.w3.org/2000/svg" xmlns:xlink="http://www.w3.org/1999/xlink" x="0px" y="0px"
	 width="576.667px" height="226.77px" viewBox="0 0 576.667 226.77" enable-background="new 0 0 576.667 226.77"
	 xml:space="preserve">
<g>
	<path fill="#FFFFFF" d="M175.074,101.402l4.902-3.578c-1.854-1.986-3.842-4.371-3.842-8.213c0-2.914,1.987-6.094,4.504-7.418
		c-1.324-1.59-3.444-3.045-6.49-3.045c-3.974,0-7.286,2.914-7.286,6.754c0,2.648,1.722,4.902,3.71,5.961
		C170.572,95.572,172.293,98.882,175.074,101.402 M148.848,75.306l4.105-7.287h-6.094c0,1.324-1.192,2.781-2.65,2.781
		c-1.588,0-2.647-1.059-2.647-2.781h-5.433c0,1.59-1.191,2.781-2.647,2.781c-1.458,0-2.65-1.191-2.65-2.781h-6.094l3.578,7.02
		c2.782-0.264,5.43-0.395,8.08-0.395C141.295,74.644,145.536,74.908,148.848,75.306 M137.72,139.947
		c-0.662-1.191-1.324-2.65-1.324-5.297c0-3.445,1.986-6.359,6.226-8.215c2.782-1.324,4.9-2.516,8.61-4.369
		c8.742-4.504,11.788-12.983,11.788-21.725c0-4.371-1.192-7.816-2.648-10.73c0.396,2.385,0.794,4.373,0.794,6.756
		c0,9.141-3.178,15.896-11.523,20.002c-5.298,2.648-7.948,3.709-11.128,5.299c-4.502,2.383-7.021,5.432-7.021,9.141
		C131.494,135.443,133.877,138.889,137.72,139.947 M132.554,138.227c-1.456-1.459-3.046-4.107-3.046-7.551
		c0-4.371,2.913-8.08,8.079-10.73c4.505-2.119,7.152-3.18,11.126-5.033c8.347-4.106,10.862-11.127,10.862-18.676
		c0-7.287-2.384-10.996-4.37-13.381c1.456,2.783,1.854,6.094,1.854,8.877c0,8.08-2.384,15.1-11.79,18.809
		c-4.769,1.986-7.814,2.648-11.922,4.502c-6.49,3.049-9.006,6.625-9.006,11.922C124.342,132,127.52,136.768,132.554,138.227
		 M127.52,137.166c-2.252-1.854-5.166-4.9-5.166-10.332c0-5.695,2.384-9.934,9.802-13.114c4.771-1.986,7.286-2.914,11.79-4.637
		c9.538-3.576,11.524-10.598,11.524-17.486c0-6.621-2.385-10.465-5.299-12.98c1.723,2.119,2.782,5.697,2.782,9.404
		c0,8.742-3.312,13.645-12.716,16.957c-3.842,1.191-7.948,2.383-12.188,3.973c-7.683,2.914-11.656,7.153-11.656,14.307
		C116.394,130.676,122.089,136.24,127.52,137.166 M122.222,136.24c-5.298-2.65-7.816-8.346-7.816-13.381
		c0-7.285,4.504-12.452,12.054-15.235c4.639-1.721,8.347-2.779,12.982-4.369c9.008-3.18,11.922-7.418,11.922-15.498
		c0-4.637-1.722-8.609-4.504-10.861c0.928,1.059,1.192,2.383,1.192,3.576c0,2.252-1.192,3.311-2.914,3.311
		c-1.061,0-2.12-0.662-2.252-1.721c0.529,0.395,0.928,0.529,1.458,0.529c1.456,0,2.252-1.061,2.252-2.518
		c0-2.252-2.12-3.445-4.24-3.709c-1.854-0.266-3.842-0.266-6.092-0.266c-2.252,0-4.372,0.133-7.154,0.266
		c1.722,2.385,7.418,1.723,9.14,2.914c-1.458-0.131-2.914-0.131-4.372,0.264c0,0.93-0.396,1.988-1.323,1.988
		c-1.723,0-2.517-1.854-3.708-5.166l-6.757,0.531c-1.06,0.131-1.457,0.529-1.325,1.324l0.664,6.623c0,0.264,0.264,0.396,0.529,0.396
		c0.265,0,0.528-0.133,0.662-0.531c0.265-0.529,1.061-1.721,3.046-1.721c2.914,0,5.166,2.65,5.298,5.695
		c-1.06-1.455-3.443-2.781-7.418-2.781c-3.046,0-5.562,0.928-9.535,0.928c-4.24,0-6.624-1.59-6.624-3.576
		c0-0.928,0.132-1.459,0.661-2.121c-1.722,0.795-3.046,2.254-3.046,4.637c0,2.914,2.12,5.963,8.345,5.963
		c5.695,0,8.346-3.578,13.512-3.578c2.384,0,3.576,1.191,3.576,2.518c0,1.191-1.061,2.252-2.914,2.252
		c-2.252,0-3.84-1.191-4.636-2.385c-0.133-0.266-0.265-0.396-0.53-0.396c-0.396,0-0.53,0.264-0.53,0.529l0.134,6.357
		c0,0.795,0.396,1.193,1.324,1.061c3.974-0.398,8.08-0.928,11.922-1.191c7.152-0.662,12.055-5.434,12.055-10.73
		c0-0.795,0-1.459-0.133-2.252c0.662,1.061,0.927,2.119,0.927,3.443c0,4.902-2.648,8.611-11.126,10.863
		c-4.505,1.191-7.816,1.721-11.658,2.648c-10.2,2.385-16.822,10.199-16.822,18.944C108.446,127.895,114.142,135.18,122.222,136.24
		 M77.846,88.419c0.529-1.191,0.662-2.252,0.662-3.047c0-1.723-0.795-3.311-1.589-3.973c1.986,0,3.708,1.455,3.708,3.443
		C80.627,86.697,79.436,87.89,77.846,88.419 M102.22,119.945l4.237-2.252c1.458-8.874,6.756-15.1,16.028-17.352
		c-4.9,0.264-9.14,0.396-15.1,0.662c-6.358,0.264-16.822,1.061-24.108,1.59c-1.458,0.133-2.384-0.398-2.782-1.59
		c-0.397-1.324-1.191-3.842-1.324-5.299c-0.134-1.193,0.133-1.988,1.192-2.781c2.118-1.459,4.238-3.18,4.238-6.756
		c0-3.842-3.312-6.357-6.358-6.357c-1.06,0-1.854,0.131-2.516,0.395c-0.796-0.527-1.59-0.926-3.181-0.926
		c-2.252,0-4.237,1.457-4.768,2.648c-3.842-0.264-6.888,2.518-6.624,6.227c0.53-0.531,1.59-1.059,2.782-1.059
		c1.456,0,2.782,1.059,2.782,2.648c0,1.457-0.267,3.312-0.267,5.297c0,6.096,4.902,9.275,4.902,12.453
		c0,1.59-1.192,2.914-2.782,2.914c0.928,3.312,3.974,5.034,8.08,5.034c2.65,0,5.034-0.264,8.876-0.264
		C96.524,115.178,101.292,116.369,102.22,119.945 M143.018,157.434h1.326c-0.135-4.24-1.192-7.154-2.914-10.199
		c-0.929-1.723-2.12-3.576-3.048-4.771c-0.53-0.793-1.192-1.057-1.986-1.057c-0.53,0-0.928,0.395-0.53,1.057
		c1.061,1.723,2.517,4.373,4.372,8.479c-1.59,0.266-1.988,1.061-1.988,2.385C138.25,155.445,140.238,157.434,143.018,157.434
		 M72.68,88.949c0.132-3.709-1.456-5.695-3.708-6.623c0.396-0.133,0.926-0.398,1.722-0.398c1.722,0,3.576,1.459,3.576,3.711
		C74.27,86.83,73.872,88.154,72.68,88.949 M157.589,182.203c-0.529-1.191-2.252-2.383-4.371-2.383c-1.192,0-1.986,0.264-2.517,0.529
		c0.132-1.061,1.192-2.252,3.312-2.252C156.53,178.098,157.854,180.084,157.589,182.203 M156.793,187.9
		c-0.794-0.928-2.117-1.723-3.84-1.723c-2.12,0-3.18,0.928-3.71,1.59c-0.264-1.59,1.061-3.576,3.578-3.576
		C155.47,184.191,156.793,186.045,156.793,187.9 M62.614,124.713c0.926-2.252,3.046-3.84,5.562-4.369
		c0.529-0.797,1.191-1.457,1.855-1.988l-4.504-18.811c-0.53-1.322-0.928-2.646-0.928-4.504c0-1.984,0.397-3.973,0.397-5.031
		c0-0.928-0.529-1.191-1.06-1.191c-0.398,0-0.662,0-0.794,0.131v0.531c0,3.045-1.856,5.43-4.902,5.43s-5.432-2.516-5.432-5.43
		s2.386-5.301,5.432-5.301c0.53,0,1.192,0,1.986,0.266c0.928-2.383,3.842-4.504,6.888-4.105c-2.118-2.65-5.298-4.24-8.874-4.24
		c-7.684,0-13.775,5.564-13.775,13.381c0,7.283,5.96,13.113,13.378,13.246L62.614,124.713z M83.146,153.193
		c1.986,0,4.105-1.061,6.092-3.045c3.576-3.445,8.61-8.611,11.658-10.6c2.647-1.721,4.37-2.383,6.092-2.383
		c1.06,0,1.856,0.266,2.65,1.061l4.504-3.445c-5.166-3.842-7.55-8.875-7.685-15.1c-7.151,3.84-12.317,9.141-18.279,14.172
		c-1.059,0.797-1.589,1.191-2.517,1.191s-1.722-0.926-3.312-2.516c-1.324-1.324-1.59-2.119-1.59-3.045
		c0-1.59,0.529-2.121,0.529-4.24c0-4.238-3.31-6.623-6.489-6.623c-2.65,0-4.637,1.457-5.299,3.312
		c-3.577,0.264-5.83,2.914-5.83,5.693c0,0.664,0.135,1.195,0.267,1.59c-1.324,0.797-2.65,2.385-2.65,4.506
		c0,2.252,1.192,4.371,3.181,5.033c-0.267-0.398-0.398-0.928-0.398-1.59c0-1.191,1.06-2.252,2.518-2.252
		c1.192,0,1.986,0.398,2.914,1.457c1.192,1.59,2.385,3.047,4.37,4.77c1.856,1.59,3.975,2.648,5.962,3.842
		c1.192,0.793,2.118,1.854,2.118,3.443c0,1.061-0.794,2.252-2.384,2.65C80.23,152.531,81.556,153.193,83.146,153.193
		 M75.594,127.363c-0.133-2.65-2.118-4.768-4.637-5.297c0.398-0.268,1.061-0.662,2.12-0.662c1.854,0,3.312,1.588,3.312,3.309
		C76.39,126.039,75.992,126.701,75.594,127.363 M90.297,197.039c-0.529-0.662-0.794-1.324-0.794-2.119
		c0-1.588,1.324-2.781,3.179-2.781c2.914,0,4.504,3.18,8.346,3.18c4.372,0,6.49-3.18,10.464-3.18c1.988,0,4.771,1.193,4.771,3.709
		c0,0.398-0.135,0.795-0.398,1.061c4.504,0,7.682-3.842,7.682-10.201c0-8.875-0.264-12.451-0.396-17.352
		c3.444-0.133,6.754-1.855,6.224-7.285c-0.926,0.793-1.985,1.191-3.178,1.191c-1.59,0-2.782-1.191-2.782-2.914
		c0-0.797,0-1.723,0.132-2.65l15.498-0.398c-1.456-0.793-2.516-2.383-2.516-4.236c0-1.324,0.53-2.252,1.59-2.783
		c-1.458-3.045-2.649-5.43-4.105-7.682c-0.796-1.191-1.723-2.385-3.578-2.385c-4.106-0.133-12.45,1.059-16.69,2.518
		c-3.178,1.059-6.226,3.443-6.226,8.873c0,5.035,1.722,13.91,1.59,27.818c0,1.988-0.53,2.65-1.722,2.914
		c-1.061,0.266-3.843,0.529-5.564,0.266c-0.926-0.135-1.722-0.795-2.252-2.781c-0.662-2.783-2.648-5.564-6.622-5.564
		c-3.578,0-6.756,2.65-6.226,6.623c-1.723,1.061-2.519,2.783-2.519,4.371c0,1.59,0.53,2.914,1.192,3.709
		c-0.396,0.928-0.528,1.457-0.528,2.385C84.868,194.656,87.782,197.039,90.297,197.039 M71.62,130.939
		c-0.794-1.59-2.516-2.516-4.504-2.516c-0.794,0-1.456,0.133-1.986,0.264c0.265-1.061,1.458-1.986,3.181-1.986
		C70.562,126.701,72.018,128.424,71.62,130.939 M94.802,182.203c-0.53-1.191-2.252-2.383-4.372-2.383
		c-1.192,0-1.986,0.264-2.517,0.529c0.132-1.061,1.192-2.252,3.312-2.252C93.742,178.098,95.066,180.084,94.802,182.203
		 M83.542,193.729c-0.396-0.795-0.529-1.59-0.529-2.385s0.134-1.457,0.397-2.119c-0.662-1.193-1.06-2.518-1.06-3.975
		c0-1.986,0.928-3.84,2.252-5.033l-8.212-35.633c-1.326-0.662-2.65-1.457-3.71-2.385c-1.854-1.59-2.914-2.781-4.637-4.768
		c-0.529-0.529-0.928-0.795-1.456-0.795c-0.796,0-1.325,0.529-1.06,1.59l1.722,8.211l3.576,2.518l9.935,42.652L83.542,193.729z
		 M94.008,187.9c-0.797-0.928-2.12-1.723-3.843-1.723c-2.12,0-3.18,0.928-3.71,1.59c-0.264-1.59,1.061-3.576,3.578-3.576
		C92.682,184.191,94.008,186.045,94.008,187.9 M28.57,197.834l8.08-6.227l9.936-42.652l3.576-2.518l7.948-34.174l-1.722-7.947
		c-1.988-0.398-3.71-0.928-5.166-1.723L28.57,197.834z M153.085,197.039c-0.529-0.662-0.794-1.324-0.794-2.119
		c0-1.588,1.324-2.781,3.179-2.781c2.914,0,4.504,3.18,8.346,3.18c4.37,0,6.49-3.18,10.464-3.18c1.988,0,4.768,1.193,4.768,3.709
		c0,0.398-0.132,0.795-0.396,1.061c4.504,0,7.682-3.842,7.682-10.201c0-8.477-0.794-17.881-1.722-27.287
		c2.384-0.529,4.636-2.914,4.636-5.961c0-1.059-0.396-2.252-1.06-3.311c-0.662,0.928-1.854,1.721-3.84,2.252
		c-2.782,0.793-6.227,1.191-8.744,1.191c-5.696,0-7.55-0.398-10.198-1.191c-0.134-3.576-2.386-6.492-4.504-8.479
		c3.31,1.324,4.768,1.986,10.066,1.986c16.956,0,27.42-11.391,27.42-24.373c0-9.407-5.96-13.776-11.393-16.956l-5.032,3.576
		c6.093,2.781,10.066,6.887,10.066,12.452c0,6.094-4.9,10.467-10.596,10.467c-6.095,0-10.862-4.373-10.862-10.334
		c0-4.502,2.118-7.815,6.092-10.995c3.975-3.178,10.068-7.02,13.38-10.596c1.723-1.857,3.179-4.771,3.046-7.023
		c2.253-1.059,3.975-3.309,3.975-6.225c0-3.84-3.708-6.754-7.682-6.754c-2.387,0-5.034,1.455-6.36,3.045
		c2.386,0.928,4.638,4.105,4.638,7.418c0,2.783-1.722,5.166-3.71,7.152c-3.046,3.049-7.02,5.301-11.392,8.877
		c-5.298,4.371-8.479,9.538-8.479,15.366c0,8.08,6.227,15.631,16.028,15.631c3.18,0,5.696-0.662,7.552-1.855
		c-3.18,3.709-9.14,5.564-15.366,5.564c-5.432,0-9.14-0.797-13.113-3.709c-3.578-2.648-6.358-8.875-6.227-13.512
		c-2.914,1.723-6.357,3.311-9.271,4.637c-4.108,1.986-5.433,4.105-5.433,7.682c0,4.77,3.312,8.479,4.769,11.26
		c1.987,3.576,2.649,6.756,2.914,10.066c0.796,8.082,5.432,11.791,13.644,11.791c3.71,0,8.61-0.266,10.599-0.531
		c0.794,3.711,1.722,8.08,1.722,11.393c0,1.988-0.53,2.65-1.722,2.914c-1.061,0.266-3.843,0.529-5.564,0.266
		c-0.926-0.135-1.722-0.795-2.252-2.781c-0.662-2.783-2.648-5.564-6.622-5.564c-3.578,0-6.756,2.65-6.226,6.623
		c-1.723,1.061-2.519,2.783-2.519,4.371c0,1.59,0.53,2.914,1.192,3.709c-0.396,0.928-0.53,1.457-0.53,2.385
		C147.654,194.656,150.57,197.039,153.085,197.039"/>
</g>
<g>
	<path fill="#FFFFFF" d="M211.195,209.628H19.994V18.427h191.201V209.628z M21.833,207.79h187.523V20.266H21.833V207.79z"/>
	<path fill="#FFFFFF" d="M174.963,101.342l4.898-3.575c-1.852-1.985-3.839-4.368-3.839-8.207c0-2.912,1.987-6.09,4.5-7.413
		c-1.323-1.589-3.443-3.043-6.486-3.043c-3.971,0-7.281,2.912-7.281,6.749c0,2.646,1.722,4.899,3.708,5.957
		C170.464,95.516,172.186,98.825,174.963,101.342 M148.757,75.265l4.102-7.282h-6.089c0,1.323-1.192,2.78-2.65,2.78
		c-1.585,0-2.645-1.059-2.645-2.78h-5.428c0,1.589-1.19,2.78-2.646,2.78s-2.648-1.191-2.648-2.78h-6.089l3.575,7.015
		c2.781-0.264,5.425-0.394,8.074-0.394C141.208,74.604,145.447,74.867,148.757,75.265 M137.636,139.859
		c-0.661-1.189-1.324-2.647-1.324-5.292c0-3.442,1.985-6.354,6.222-8.21c2.78-1.322,4.895-2.514,8.603-4.365
		c8.736-4.501,11.781-12.974,11.781-21.709c0-4.368-1.192-7.811-2.646-10.723c0.394,2.382,0.792,4.369,0.792,6.751
		c0,9.134-3.176,15.885-11.516,19.988c-5.293,2.646-7.943,3.707-11.121,5.295c-4.497,2.381-7.014,5.428-7.014,9.135
		C131.414,135.358,133.795,138.804,137.636,139.859 M132.474,138.142c-1.454-1.458-3.042-4.105-3.042-7.546
		c0-4.369,2.91-8.074,8.072-10.724c4.5-2.118,7.147-3.177,11.117-5.029c8.342-4.103,10.855-11.119,10.855-18.663
		c0-7.282-2.38-10.989-4.367-13.371c1.456,2.781,1.854,6.089,1.854,8.871c0,8.074-2.381,15.088-11.781,18.794
		c-4.767,1.985-7.811,2.647-11.913,4.5c-6.488,3.047-9.002,6.62-9.002,11.913C124.267,131.918,127.444,136.684,132.474,138.142
		 M127.444,137.081c-2.252-1.852-5.165-4.896-5.165-10.325c0-5.691,2.384-9.927,9.796-13.104c4.768-1.985,7.282-2.913,11.783-4.634
		c9.53-3.574,11.515-10.59,11.515-17.474c0-6.616-2.383-10.457-5.295-12.971c1.722,2.117,2.781,5.693,2.781,9.398
		c0,8.735-3.31,13.634-12.708,16.945c-3.839,1.19-7.941,2.381-12.179,3.969c-7.677,2.912-11.647,7.148-11.647,14.298
		C116.326,130.596,122.017,136.156,127.444,137.081 M122.149,136.156c-5.295-2.649-7.811-8.341-7.811-13.372
		c0-7.28,4.5-12.442,12.044-15.224c4.637-1.72,8.342-2.777,12.975-4.366c9.001-3.177,11.913-7.413,11.913-15.487
		c0-4.633-1.721-8.604-4.5-10.854c0.925,1.058,1.191,2.381,1.191,3.574c0,2.25-1.191,3.308-2.912,3.308
		c-1.06,0-2.12-0.661-2.25-1.72c0.529,0.395,0.927,0.529,1.458,0.529c1.454,0,2.249-1.06,2.249-2.516
		c0-2.25-2.118-3.442-4.235-3.706c-1.854-0.265-3.841-0.265-6.089-0.265c-2.249,0-4.368,0.133-7.147,0.265
		c1.72,2.383,7.413,1.722,9.132,2.912c-1.458-0.131-2.913-0.131-4.37,0.263c0,0.93-0.395,1.987-1.322,1.987
		c-1.721,0-2.516-1.851-3.707-5.162l-6.75,0.531c-1.06,0.131-1.457,0.529-1.325,1.324l0.664,6.618c0,0.263,0.265,0.396,0.531,0.396
		c0.263,0,0.527-0.132,0.66-0.531c0.266-0.528,1.062-1.719,3.045-1.719c2.911,0,5.162,2.648,5.293,5.691
		c-1.059-1.454-3.439-2.779-7.413-2.779c-3.043,0-5.557,0.927-9.529,0.927c-4.235,0-6.618-1.589-6.618-3.573
		c0-0.927,0.131-1.458,0.662-2.12c-1.722,0.794-3.045,2.252-3.045,4.633c0,2.912,2.12,5.959,8.338,5.959
		c5.692,0,8.342-3.576,13.502-3.576c2.383,0,3.576,1.19,3.576,2.516c0,1.19-1.061,2.25-2.912,2.25c-2.252,0-3.837-1.19-4.633-2.383
		c-0.133-0.266-0.266-0.396-0.531-0.396c-0.394,0-0.529,0.263-0.529,0.529l0.135,6.353c0,0.794,0.394,1.193,1.323,1.06
		c3.97-0.398,8.072-0.927,11.914-1.191c7.147-0.662,12.046-5.43,12.046-10.723c0-0.795,0-1.458-0.133-2.25
		c0.66,1.06,0.925,2.118,0.925,3.441c0,4.898-2.646,8.605-11.117,10.856c-4.503,1.19-7.811,1.719-11.652,2.646
		c-10.192,2.383-16.808,10.192-16.808,18.93C108.384,127.815,114.075,135.097,122.149,136.156 M77.804,88.37
		c0.531-1.191,0.664-2.25,0.664-3.045c0-1.721-0.796-3.308-1.588-3.969c1.985,0,3.705,1.454,3.705,3.441
		C80.583,86.648,79.393,87.84,77.804,88.37 M102.162,119.872l4.235-2.25c1.456-8.867,6.749-15.089,16.016-17.339
		c-4.897,0.263-9.134,0.396-15.089,0.662c-6.353,0.264-16.811,1.06-24.09,1.588c-1.458,0.133-2.383-0.398-2.781-1.588
		c-0.397-1.323-1.191-3.839-1.324-5.295c-0.135-1.192,0.133-1.987,1.192-2.779c2.116-1.458,4.236-3.177,4.236-6.751
		c0-3.839-3.311-6.353-6.355-6.353c-1.057,0-1.852,0.13-2.514,0.395c-0.796-0.527-1.588-0.925-3.177-0.925
		c-2.252,0-4.236,1.456-4.767,2.646c-3.837-0.264-6.882,2.516-6.618,6.222c0.529-0.531,1.588-1.058,2.781-1.058
		c1.454,0,2.779,1.058,2.779,2.647c0,1.456-0.266,3.31-0.266,5.293c0,6.091,4.898,9.269,4.898,12.444
		c0,1.588-1.192,2.912-2.781,2.912c0.927,3.311,3.972,5.03,8.074,5.03c2.648,0,5.031-0.264,8.869-0.264
		C96.471,115.108,101.232,116.299,102.162,119.872 M142.929,157.335h1.327c-0.136-4.238-1.192-7.15-2.912-10.192
		c-0.929-1.723-2.12-3.574-3.046-4.77c-0.529-0.791-1.193-1.056-1.985-1.056c-0.53,0-0.927,0.396-0.53,1.056
		c1.062,1.723,2.516,4.371,4.37,8.473c-1.588,0.266-1.987,1.06-1.987,2.384C138.165,155.348,140.152,157.335,142.929,157.335
		 M72.644,88.898c0.13-3.707-1.457-5.691-3.707-6.618c0.396-0.133,0.925-0.398,1.72-0.398c1.722,0,3.576,1.458,3.576,3.708
		C74.232,86.78,73.834,88.104,72.644,88.898 M157.491,182.085c-0.529-1.189-2.25-2.381-4.368-2.381
		c-1.193,0-1.985,0.265-2.516,0.529c0.132-1.061,1.192-2.251,3.31-2.251C156.432,177.982,157.754,179.969,157.491,182.085
		 M156.697,187.778c-0.794-0.927-2.116-1.72-3.837-1.72c-2.12,0-3.177,0.927-3.708,1.587c-0.263-1.587,1.06-3.574,3.576-3.574
		C155.374,184.071,156.697,185.925,156.697,187.778 M62.584,124.638c0.925-2.252,3.043-3.839,5.558-4.367
		c0.527-0.796,1.19-1.456,1.854-1.987l-4.5-18.797c-0.53-1.321-0.929-2.645-0.929-4.5c0-1.983,0.398-3.97,0.398-5.027
		c0-0.928-0.53-1.19-1.058-1.19c-0.398,0-0.664,0-0.794,0.13v0.531c0,3.043-1.856,5.426-4.899,5.426
		c-3.043,0-5.428-2.514-5.428-5.426c0-2.912,2.385-5.297,5.428-5.297c0.529,0,1.192,0,1.985,0.265
		c0.927-2.381,3.839-4.501,6.881-4.103c-2.115-2.648-5.292-4.237-8.866-4.237c-7.678,0-13.766,5.56-13.766,13.371
		c0,7.278,5.957,13.104,13.369,13.236L62.584,124.638z M83.101,153.097c1.985,0,4.103-1.061,6.088-3.043
		c3.573-3.442,8.605-8.605,11.649-10.592c2.646-1.719,4.368-2.381,6.088-2.381c1.06,0,1.856,0.265,2.648,1.061l4.5-3.443
		c-5.162-3.84-7.545-8.87-7.678-15.09c-7.147,3.838-12.31,9.134-18.269,14.161c-1.058,0.798-1.587,1.191-2.514,1.191
		c-0.927,0-1.721-0.925-3.31-2.514c-1.323-1.322-1.588-2.118-1.588-3.043c0-1.589,0.53-2.12,0.53-4.236
		c0-4.235-3.308-6.618-6.486-6.618c-2.648,0-4.633,1.456-5.295,3.31c-3.576,0.263-5.825,2.911-5.825,5.689
		c0,0.664,0.134,1.193,0.267,1.589c-1.323,0.796-2.651,2.383-2.651,4.503c0,2.249,1.192,4.367,3.179,5.029
		c-0.267-0.397-0.397-0.927-0.397-1.589c0-1.191,1.059-2.251,2.516-2.251c1.19,0,1.985,0.399,2.912,1.455
		c1.191,1.59,2.383,3.045,4.368,4.768c1.854,1.589,3.97,2.646,5.957,3.838c1.191,0.794,2.116,1.854,2.116,3.443
		c0,1.06-0.792,2.249-2.381,2.646C80.187,152.435,81.512,153.097,83.101,153.097 M75.555,127.284
		c-0.132-2.646-2.117-4.763-4.633-5.292c0.397-0.268,1.058-0.662,2.117-0.662c1.853,0,3.31,1.587,3.31,3.308
		C76.35,125.962,75.952,126.624,75.555,127.284 M90.248,196.911c-0.531-0.662-0.794-1.322-0.794-2.118
		c0-1.587,1.324-2.778,3.175-2.778c2.913,0,4.501,3.176,8.342,3.176c4.368,0,6.484-3.176,10.456-3.176
		c1.987,0,4.768,1.191,4.768,3.705c0,0.4-0.137,0.796-0.398,1.061c4.5,0,7.675-3.839,7.675-10.195
		c0-8.867-0.262-12.441-0.395-17.338c3.443-0.133,6.749-1.854,6.219-7.28c-0.926,0.793-1.983,1.191-3.174,1.191
		c-1.588,0-2.781-1.191-2.781-2.912c0-0.798,0-1.723,0.131-2.649l15.488-0.397c-1.456-0.793-2.514-2.38-2.514-4.233
		c0-1.323,0.53-2.25,1.589-2.781c-1.458-3.042-2.649-5.425-4.103-7.676c-0.796-1.191-1.721-2.383-3.576-2.383
		c-4.104-0.134-12.442,1.058-16.68,2.516c-3.175,1.058-6.222,3.44-6.222,8.866c0,5.031,1.721,13.901,1.588,27.799
		c0,1.986-0.529,2.649-1.719,2.911c-1.06,0.267-3.839,0.529-5.561,0.267c-0.925-0.135-1.721-0.795-2.251-2.78
		c-0.661-2.78-2.646-5.561-6.618-5.561c-3.576,0-6.749,2.649-6.22,6.619c-1.721,1.06-2.516,2.78-2.516,4.367
		c0,1.589,0.529,2.913,1.191,3.707c-0.396,0.927-0.527,1.456-0.527,2.383C84.822,194.53,87.734,196.911,90.248,196.911
		 M71.582,130.858c-0.792-1.589-2.514-2.514-4.501-2.514c-0.792,0-1.453,0.133-1.983,0.265c0.264-1.061,1.457-1.985,3.178-1.985
		C70.526,126.624,71.98,128.345,71.582,130.858 M94.749,182.085c-0.53-1.189-2.25-2.381-4.368-2.381
		c-1.192,0-1.987,0.265-2.516,0.529c0.131-1.061,1.193-2.251,3.311-2.251C93.689,177.982,95.012,179.969,94.749,182.085
		 M83.496,193.602c-0.395-0.793-0.527-1.587-0.527-2.382c0-0.794,0.132-1.456,0.396-2.116c-0.661-1.193-1.06-2.519-1.06-3.974
		c0-1.985,0.929-3.837,2.252-5.03l-8.208-35.606c-1.325-0.66-2.648-1.456-3.706-2.383c-1.854-1.589-2.912-2.78-4.634-4.765
		c-0.531-0.529-0.929-0.794-1.456-0.794c-0.796,0-1.324,0.529-1.058,1.59l1.72,8.205l3.574,2.516l9.927,42.621L83.496,193.602z
		 M93.957,187.778c-0.797-0.927-2.12-1.72-3.841-1.72c-2.12,0-3.177,0.927-3.708,1.587c-0.261-1.587,1.062-3.574,3.576-3.574
		C92.629,184.071,93.957,185.925,93.957,187.778 M28.563,197.707l8.075-6.224l9.928-42.621l3.573-2.516l7.944-34.151l-1.721-7.941
		c-1.987-0.398-3.708-0.927-5.163-1.722L28.563,197.707z M152.99,196.911c-0.529-0.662-0.794-1.322-0.794-2.118
		c0-1.587,1.323-2.778,3.178-2.778c2.912,0,4.5,3.176,8.34,3.176c4.366,0,6.485-3.176,10.456-3.176c1.987,0,4.766,1.191,4.766,3.705
		c0,0.4-0.133,0.796-0.396,1.061c4.5,0,7.676-3.839,7.676-10.195c0-8.47-0.793-17.866-1.722-27.266
		c2.383-0.529,4.633-2.913,4.633-5.956c0-1.059-0.394-2.252-1.058-3.31c-0.664,0.927-1.854,1.721-3.837,2.251
		c-2.781,0.792-6.222,1.189-8.74,1.189c-5.691,0-7.543-0.397-10.19-1.189c-0.134-3.573-2.383-6.489-4.501-8.472
		c3.308,1.322,4.765,1.982,10.059,1.982c16.943,0,27.401-11.382,27.401-24.354c0-9.399-5.957-13.766-11.384-16.943l-5.03,3.574
		c6.09,2.779,10.06,6.882,10.06,12.441c0,6.091-4.895,10.46-10.586,10.46c-6.091,0-10.855-4.369-10.855-10.327
		c0-4.499,2.116-7.809,6.087-10.986c3.972-3.175,10.061-7.015,13.371-10.588c1.721-1.856,3.175-4.768,3.042-7.019
		c2.251-1.058,3.973-3.306,3.973-6.22c0-3.837-3.705-6.749-7.676-6.749c-2.385,0-5.03,1.454-6.357,3.043
		c2.385,0.927,4.635,4.103,4.635,7.413c0,2.781-1.72,5.162-3.707,7.147c-3.044,3.047-7.014,5.297-11.385,8.871
		c-5.294,4.368-8.472,9.531-8.472,15.355c0,8.074,6.223,15.619,16.016,15.619c3.178,0,5.694-0.662,7.548-1.854
		c-3.178,3.705-9.132,5.561-15.354,5.561c-5.43,0-9.134-0.797-13.104-3.707c-3.576-2.646-6.355-8.869-6.223-13.501
		c-2.912,1.72-6.354,3.307-9.267,4.632c-4.104,1.986-5.428,4.103-5.428,7.676c0,4.768,3.31,8.475,4.764,11.253
		c1.987,3.573,2.648,6.752,2.912,10.059c0.796,8.077,5.429,11.782,13.634,11.782c3.709,0,8.604-0.265,10.59-0.529
		c0.794,3.707,1.721,8.072,1.721,11.384c0,1.986-0.531,2.649-1.721,2.911c-1.058,0.267-3.839,0.529-5.559,0.267
		c-0.925-0.135-1.721-0.795-2.252-2.78c-0.66-2.78-2.646-5.561-6.616-5.561c-3.576,0-6.751,2.649-6.223,6.619
		c-1.721,1.06-2.515,2.78-2.515,4.367c0,1.589,0.528,2.913,1.192,3.707c-0.398,0.927-0.531,1.456-0.531,2.383
		C147.562,194.53,150.477,196.911,152.99,196.911"/>
	<path fill="#FFFFFF" d="M539.135,209.632H558v-6.237h-10.98v-4.425h10.622v-6.073H547.02v-4.386H558v-6.235h-18.865V209.632z
		 M519.504,210.273c6.437,0,11.786-3.098,11.786-10.742v-17.256h-7.885v16.532c0,3.099-1.688,4.464-3.901,4.464
		c-2.211,0-3.899-1.365-3.899-4.464v-16.532h-7.886v17.256C507.719,207.176,513.069,210.273,519.504,210.273 M491.188,210.273
		c4.865,0,8.244-1.488,9.893-2.335v-12.105h-7.682v7.399c-0.564,0.121-1.166,0.201-1.771,0.201c-3.059,0-6.437-2.331-6.437-7.482
		c0-5.55,2.976-8.285,8.084-8.285c2.818,0,5.229,0.966,6.72,1.77v-6.437c-1.609-0.724-4.265-1.729-7.883-1.729
		c-9.293,0-15.529,5.752-15.529,14.681C476.584,204.883,483.542,210.273,491.188,210.273 M456.713,198.365l2.692-10.097h0.364
		l2.696,10.097H456.713z M465.479,209.632h8.089l-8.207-27.356h-11.545l-8.167,27.356h8.085l1.491-5.674h8.728L465.479,209.632z
		 M428.393,194.906v-6.8h3.178c2.133,0,3.381,1.651,3.381,3.382s-1.248,3.418-3.381,3.418H428.393z M420.508,209.632h7.885v-9.616
		h2.011l4.746,9.616h8.891l-5.025-8.45c-0.523-0.886-1.167-1.689-1.53-1.931l0.041-0.162c2.412-1.085,5.832-3.138,5.832-7.802
		c0-4.909-3.902-9.012-10.296-9.012h-12.554V209.632z M400.275,194.906v-6.757h3.099c1.728,0,3.297,1.446,3.297,3.377
		c0,1.973-1.569,3.38-3.297,3.38H400.275z M392.391,209.632h7.885v-8.852h4.023c6.396,0,10.377-4.062,10.377-9.092
		c0-5.027-3.981-9.413-10.377-9.413h-11.908V209.632z M348.345,209.632h7.886v-16.413h0.118l8.289,16.413h9.612v-27.356h-7.883
		v16.331h-0.122l-8.204-16.331h-9.696V209.632z M332.417,209.632h7.883v-27.356h-7.883V209.632z M302.69,210.273
		c6.435,0,11.784-3.098,11.784-10.742v-17.256h-7.885v16.532c0,3.099-1.687,4.464-3.899,4.464s-3.902-1.365-3.902-4.464v-16.532
		h-7.885v17.256C290.903,207.176,296.254,210.273,302.69,210.273 M271.275,209.632h7.882v-20.961h6.798v-6.396h-21.52v6.396h6.839
		V209.632z M253.333,210.072c3.257,0,5.992-0.847,7.643-1.689v-6.879c-1.569,0.845-3.379,1.568-6.236,1.568
		c-2.857,0-6.999-2.171-6.999-7.121c0-4.945,3.783-7.28,7.444-7.28c2.493,0,4.222,0.563,5.75,1.328V183.2
		c-1.609-0.722-3.619-1.285-6.839-1.285c-8.085,0-14.962,5.311-14.962,14.036C239.134,204.68,245.29,210.072,253.333,210.072"/>
	<path fill="#FFFFFF" d="M524.61,169.311c4.867,0,8.247-1.488,9.896-2.331v-12.111h-7.684v7.404c-0.562,0.12-1.167,0.198-1.77,0.198
		c-3.059,0-6.435-2.333-6.435-7.479c0-5.553,2.975-8.286,8.084-8.286c2.816,0,5.23,0.966,6.718,1.768v-6.434
		c-1.609-0.729-4.263-1.732-7.883-1.732c-9.293,0-15.531,5.753-15.531,14.685C510.006,163.921,516.966,169.311,524.61,169.311
		 M477.666,168.667h7.886v-16.411h0.12l8.288,16.411h9.614v-27.356h-7.885v16.336h-0.121l-8.206-16.336h-9.696V168.667z
		 M461.739,168.667h7.882v-27.356h-7.882V168.667z M440.381,153.943v-6.797h3.178c2.13,0,3.378,1.648,3.378,3.381
		c0,1.729-1.248,3.416-3.378,3.416H440.381z M432.496,168.667h7.885v-9.614h2.011l4.746,9.614h8.888l-5.027-8.447
		c-0.524-0.886-1.165-1.689-1.526-1.932l0.039-0.16c2.412-1.087,5.832-3.137,5.832-7.804c0-4.908-3.899-9.014-10.298-9.014h-12.549
		V168.667z M406.43,168.667h18.865v-6.235h-10.981v-4.425h10.619v-6.073h-10.619v-4.386h10.981v-6.237H406.43V168.667z
		 M380.361,168.667h18.869v-6.235h-10.984v-4.425h10.621v-6.073h-10.621v-4.386h10.984v-6.237h-18.869V168.667z M346.413,168.667
		h7.885v-16.411h0.12l8.288,16.411h9.611v-27.356h-7.882v16.336h-0.122l-8.205-16.336h-9.695V168.667z M330.485,168.667h7.882
		v-27.356h-7.882V168.667z M313.75,169.311c4.867,0,8.248-1.488,9.898-2.331v-12.111h-7.688v7.404
		c-0.562,0.12-1.162,0.198-1.769,0.198c-3.055,0-6.436-2.333-6.436-7.479c0-5.553,2.978-8.286,8.086-8.286
		c2.815,0,5.229,0.966,6.717,1.768v-6.434c-1.61-0.729-4.263-1.732-7.884-1.732c-9.293,0-15.525,5.753-15.525,14.685
		C299.15,163.921,306.107,169.311,313.75,169.311 M266.808,168.667h7.884v-16.411h0.121l8.286,16.411h9.614v-27.356h-7.885v16.336
		h-0.12l-8.207-16.336h-9.694V168.667z M240.742,168.667h18.865v-6.235h-10.981v-4.425h10.621v-6.073h-10.621v-4.386h10.981v-6.237
		h-18.865V168.667z"/>
	<path fill="#FFFFFF" d="M533.302,127.707h17.66v-6.479h-9.777v-20.878h-7.883V127.707z M512.224,116.441l2.692-10.097h0.364
		l2.693,10.097H512.224z M520.993,127.707h8.083l-8.206-27.356h-11.542l-8.167,27.356h8.084l1.487-5.674h8.732L520.993,127.707z
		 M490.099,128.147c3.259,0,5.994-0.843,7.643-1.688v-6.881c-1.568,0.845-3.378,1.57-6.234,1.57s-6.997-2.173-6.997-7.121
		c0-4.947,3.778-7.28,7.439-7.28c2.494,0,4.224,0.562,5.752,1.327v-6.799c-1.608-0.723-3.621-1.287-6.838-1.287
		c-8.086,0-14.965,5.311-14.965,14.039C475.898,122.757,482.054,128.147,490.099,128.147 M461.58,127.707h7.883v-27.356h-7.883
		V127.707z M440.22,112.982v-6.798h3.178c2.132,0,3.377,1.649,3.377,3.381c0,1.729-1.245,3.417-3.377,3.417H440.22z
		 M432.335,127.707h7.885v-9.614h2.011l4.747,9.614h8.887l-5.026-8.45c-0.521-0.884-1.163-1.688-1.528-1.93l0.041-0.16
		c2.412-1.088,5.832-3.139,5.832-7.805c0-4.908-3.899-9.012-10.297-9.012h-12.551V127.707z M412.504,127.707h7.883v-20.958h6.8
		v-6.398h-21.521v6.398h6.839V127.707z M394.562,128.147c3.258,0,5.995-0.843,7.646-1.688v-6.881c-1.568,0.845-3.38,1.57-6.237,1.57
		c-2.854,0-6.999-2.173-6.999-7.121c0-4.947,3.783-7.28,7.442-7.28c2.492,0,4.226,0.562,5.752,1.327v-6.799
		c-1.608-0.723-3.619-1.287-6.84-1.287c-8.084,0-14.963,5.311-14.963,14.039C380.363,122.757,386.519,128.147,394.562,128.147
		 M355.905,127.707h18.868v-6.236H363.79v-4.424h10.621v-6.075H363.79v-4.385h10.983v-6.236h-18.868V127.707z M334.226,127.707
		h17.659v-6.479h-9.773v-20.878h-7.886V127.707z M308.16,127.707h18.865v-6.236h-10.981v-4.424h10.619v-6.075h-10.619v-4.385h10.981
		v-6.236H308.16V127.707z M272.923,100.351v27.356h7.885v-10.58h10.699v-6.074h-10.699v-4.466h10.819v-6.236H272.923z
		 M252.851,121.35c-3.501,0-5.27-2.816-5.27-7.321c0-4.506,1.769-7.32,5.27-7.32c3.541,0,5.188,2.814,5.188,7.32
		C258.039,118.533,256.392,121.35,252.851,121.35 M252.851,128.349c8.166,0,13.635-5.188,13.635-14.32
		c0-9.13-5.469-14.321-13.635-14.321c-8.128,0-13.716,5.191-13.716,14.321C239.134,123.161,244.723,128.349,252.851,128.349"/>
	<path fill="#FFFFFF" d="M400.358,86.745h7.885V76.727l9.45-17.337h-8.729l-4.466,9.776h-0.158l-4.304-9.776h-8.934l9.255,17.337
		V86.745z M375.095,86.745h7.886V65.786h6.799V59.39h-21.523v6.396h6.839V86.745z M351.12,86.745h17.659v-6.478h-9.773V59.39h-7.886
		V86.745z M331.49,87.388c6.437,0,11.788-3.097,11.788-10.74V59.39h-7.885v16.533c0,3.098-1.69,4.464-3.903,4.464
		c-2.21,0-3.9-1.366-3.9-4.464V59.39h-7.885v17.257C319.705,84.291,325.057,87.388,331.49,87.388 M306.308,87.187
		c3.261,0,5.997-0.845,7.646-1.688v-6.88c-1.567,0.845-3.378,1.569-6.236,1.569c-2.855,0-6.999-2.172-6.999-7.121
		c0-4.946,3.783-7.281,7.44-7.281c2.494,0,4.228,0.564,5.753,1.327v-6.798c-1.607-0.722-3.618-1.286-6.838-1.286
		c-8.085,0-14.965,5.311-14.965,14.038C292.109,81.796,298.266,87.187,306.308,87.187 M272.239,75.48l2.694-10.097h0.362
		l2.698,10.097H272.239z M281.006,86.745h8.087l-8.208-27.355h-11.543l-8.166,27.355h8.084l1.49-5.672h8.728L281.006,86.745z
		 M240.742,59.39v27.355h7.884v-10.58h10.699v-6.074h-10.699v-4.466h10.821V59.39H240.742z"/>
</g>
</svg>
