<?xml version="1.0" encoding="UTF-8" standalone="no"?>
<!-- Created with Inkscape (http://www.inkscape.org/) -->

<svg
   xmlns:dc="http://purl.org/dc/elements/1.1/"
   xmlns:cc="http://creativecommons.org/ns#"
   xmlns:rdf="http://www.w3.org/1999/02/22-rdf-syntax-ns#"
   xmlns:svg="http://www.w3.org/2000/svg"
   xmlns="http://www.w3.org/2000/svg"
   xmlns:sodipodi="http://sodipodi.sourceforge.net/DTD/sodipodi-0.dtd"
   xmlns:inkscape="http://www.inkscape.org/namespaces/inkscape"
   id="svg3881"
   version="1.1"
   inkscape:version="0.47 r22583"
   width="496.0625"
   height="106.29925"
   xml:space="preserve"
   sodipodi:docname="iim_logo CZ_cb_neg.svg"><metadata
     id="metadata3887"><rdf:RDF><cc:Work
         rdf:about=""><dc:format>image/svg+xml</dc:format><dc:type
           rdf:resource="http://purl.org/dc/dcmitype/StillImage" /><dc:title></dc:title></cc:Work></rdf:RDF></metadata><defs
     id="defs3885"><inkscape:perspective
       sodipodi:type="inkscape:persp3d"
       inkscape:vp_x="0 : 0.5 : 1"
       inkscape:vp_y="0 : 1000 : 0"
       inkscape:vp_z="1 : 0.5 : 1"
       inkscape:persp3d-origin="0.5 : 0.33333333 : 1"
       id="perspective3889" /><clipPath
       clipPathUnits="userSpaceOnUse"
       id="clipPath3913"><path
         d="m 0,85.039 396.85,0 L 396.85,0 0,0 0,85.039 z"
         id="path3915" /></clipPath></defs><sodipodi:namedview
     pagecolor="#ffffff"
     bordercolor="#666666"
     borderopacity="1"
     objecttolerance="10"
     gridtolerance="10"
     guidetolerance="10"
     inkscape:pageopacity="0"
     inkscape:pageshadow="2"
     inkscape:window-width="640"
     inkscape:window-height="480"
     id="namedview3883"
     showgrid="false"
     inkscape:zoom="1.0663979"
     inkscape:cx="248.03125"
     inkscape:cy="53.149625"
     inkscape:current-layer="g3891" /><g
     id="g3891"
     inkscape:groupmode="layer"
     inkscape:label="iim_logo CZ_cb_neg"
     transform="matrix(1.25,0,0,-1.25,0,106.29925)"><g
       id="g3975"
       inkscape:export-filename="/home/berka/Projects/Institut-intermedii/Cedule/IIM-Graficky-Manual/IIM_logo/iim_logo-CZ_cb_neg.jpg.png"
       inkscape:export-xdpi="234.45"
       inkscape:export-ydpi="234.45"><rect
         transform="scale(1,-1)"
         y="-84.771362"
         x="-2.2505672"
         height="87.021935"
         width="402.10132"
         id="rect3973"
         style="fill:#000000;fill-opacity:1;stroke:none" /><path
         id="path3893"
         style="fill:#918f90;fill-opacity:1;fill-rule:nonzero;stroke:none"
         d="m 41.49,66.717 8.454,0 0,8.452 -8.454,0 0,-8.452 z" /><path
         id="path3895"
         style="fill:#918f90;fill-opacity:1;fill-rule:nonzero;stroke:none"
         d="m 58.396,66.717 8.454,0 0,8.452 -8.454,0 0,-8.452 z" /><g
         transform="translate(41.4897,66.7119)"
         id="g3897"><path
           id="path3899"
           style="fill:#ffffff;fill-opacity:1;fill-rule:nonzero;stroke:none"
           d="m 0,0 0,-33.813 8.418,0 0,25.361 8.488,0 0,-25.361 8.454,0 0,25.361 8.452,0 0,-25.361 8.454,0 L 42.266,0 0,0 z" /></g><path
         id="path3901"
         style="fill:#918f90;fill-opacity:1;fill-rule:nonzero;stroke:none"
         d="m 75.302,66.717 8.454,0 0,8.452 -8.454,0 0,-8.452 z" /><path
         id="path3903"
         style="fill:#ffffff;fill-opacity:1;fill-rule:nonzero;stroke:none"
         d="m 83.761,32.864 4.649,0 0,-17.445 -4.649,0 0,17.445 z" /><g
         transform="translate(93.3364,32.8643)"
         id="g3905"><path
           id="path3907"
           style="fill:#ffffff;fill-opacity:1;fill-rule:nonzero;stroke:none"
           d="m 0,0 5.923,0 5.899,-11.847 0.05,0 L 11.797,0 l 4.249,0 0,-17.445 -5.774,0 -6.098,11.922 -0.05,0 0.15,-11.922 -4.274,0 L 0,0 z" /></g><g
         id="g3909"><g
           clip-path="url(#clipPath3913)"
           id="g3911"><g
             transform="translate(114.1362,19.7178)"
             id="g3917"><path
               id="path3919"
               style="fill:#ffffff;fill-opacity:1;fill-rule:nonzero;stroke:none"
               d="m 0,0 c 1.2,-0.649 2.874,-1.149 4.799,-1.149 1.474,0 2.874,0.299 2.874,1.699 0,3.249 -8.248,1.2 -8.248,7.549 0,4.198 4.099,5.348 7.598,5.348 1.675,0 3.324,-0.25 4.499,-0.65 l -0.3,-3.599 c -1.2,0.55 -2.549,0.8 -3.874,0.8 -1.175,0 -3.124,-0.101 -3.124,-1.625 0,-2.824 8.248,-0.925 8.248,-7.224 0,-4.523 -3.799,-5.748 -7.673,-5.748 -1.625,0 -3.65,0.25 -5.199,0.75 L 0,0 z" /></g><g
             transform="translate(133.7354,29.416)"
             id="g3921"><path
               id="path3923"
               style="fill:#ffffff;fill-opacity:1;fill-rule:nonzero;stroke:none"
               d="m 0,0 -4.299,0 0,3.448 13.247,0 0,-3.448 -4.299,0 0,-13.997 -4.649,0 L 0,0 z" /></g><path
             id="path3925"
             style="fill:#ffffff;fill-opacity:1;fill-rule:nonzero;stroke:none"
             d="m 146.236,32.864 4.649,0 0,-17.445 -4.649,0 0,17.445 z" /><g
             transform="translate(158.7354,29.416)"
             id="g3927"><path
               id="path3929"
               style="fill:#ffffff;fill-opacity:1;fill-rule:nonzero;stroke:none"
               d="m 0,0 -4.299,0 0,3.448 13.247,0 0,-3.448 -4.299,0 0,-13.997 -4.649,0 L 0,0 z" /></g><g
             transform="translate(186.0571,22.042)"
             id="g3931"><path
               id="path3933"
               style="fill:#ffffff;fill-opacity:1;fill-rule:nonzero;stroke:none"
               d="m 0,0 c 0,-4.773 -3.099,-6.923 -7.648,-6.923 -4.549,0 -7.648,2.15 -7.648,6.923 l 0,10.822 4.649,0 0,-10.047 c 0,-2.299 0.625,-4.249 2.999,-4.249 2.374,0 2.999,1.95 2.999,4.249 l 0,10.047 4.649,0 L 0,0 z" /></g><g
             transform="translate(193.4351,29.416)"
             id="g3935"><path
               id="path3937"
               style="fill:#ffffff;fill-opacity:1;fill-rule:nonzero;stroke:none"
               d="m 0,0 -4.299,0 0,3.448 13.247,0 0,-3.448 -4.299,0 0,-13.997 -4.649,0 L 0,0 z" /></g><path
             id="path3939"
             style="fill:#918f90;fill-opacity:1;fill-rule:nonzero;stroke:none"
             d="m 206.311,32.864 2.499,0 0,-17.445 -2.499,0 0,17.445 z" /><g
             transform="translate(214.6104,32.8643)"
             id="g3941"><path
               id="path3943"
               style="fill:#918f90;fill-opacity:1;fill-rule:nonzero;stroke:none"
               d="m 0,0 3.399,0 7.699,-14.046 0.049,0 0,14.046 2.5,0 0,-17.445 -3.199,0 -7.898,14.346 -0.051,0 0,-14.346 -2.499,0 L 0,0 z" /></g><g
             transform="translate(237.5342,30.665)"
             id="g3945"><path
               id="path3947"
               style="fill:#918f90;fill-opacity:1;fill-rule:nonzero;stroke:none"
               d="m 0,0 -5.424,0 0,2.199 13.347,0 0,-2.199 -5.424,0 0,-15.246 -2.499,0 L 0,0 z" /></g><g
             transform="translate(249.46,32.8643)"
             id="g3949"><path
               id="path3951"
               style="fill:#918f90;fill-opacity:1;fill-rule:nonzero;stroke:none"
               d="m 0,0 9.772,0 0,-2.199 -7.273,0 0,-5.099 6.624,0 0,-2.199 -6.624,0 0,-5.749 7.273,0 0,-2.199 -9.772,0 L 0,0 z" /></g><g
             transform="translate(266.96,25.3662)"
             id="g3953"><path
               id="path3955"
               style="fill:#918f90;fill-opacity:1;fill-rule:nonzero;stroke:none"
               d="m 0,0 2.124,0 c 2.375,0 3.774,1.05 3.774,2.725 0,1.574 -1.2,2.574 -3.499,2.574 L 0,5.299 0,0 z m -2.5,7.498 4.274,0 c 3.45,0 6.774,-0.55 6.774,-4.724 0,-2.124 -1.575,-3.624 -3.6,-3.973 l 0,-0.05 c 0.776,-0.301 1.151,-0.675 1.7,-1.75 l 3.299,-6.948 -2.849,0 -2.674,6.049 c -0.776,1.699 -1.6,1.699 -2.925,1.699 l -1.499,0 0,-7.748 -2.5,0 0,17.445 z" /></g><g
             transform="translate(281.2842,32.8643)"
             id="g3957"><path
               id="path3959"
               style="fill:#918f90;fill-opacity:1;fill-rule:nonzero;stroke:none"
               d="M 0,0 4.124,0 9.598,-14.496 14.972,0 l 4.124,0 0,-17.445 -2.499,0 0,15.096 -0.05,0 -5.775,-15.096 -2.449,0 -5.773,15.096 -0.05,0 0,-15.096 -2.5,0 L 0,0 z" /></g><g
             transform="translate(312.3828,36.5635)"
             id="g3961"><path
               id="path3963"
               style="fill:#918f90;fill-opacity:1;fill-rule:nonzero;stroke:none"
               d="m 0,0 2.874,0 -3.274,-2.699 -1.825,0 L 0,0 z m -6.023,-3.699 9.772,0 0,-2.199 -7.273,0 0,-5.099 6.624,0 0,-2.199 -6.624,0 0,-5.749 7.273,0 0,-2.2 -9.772,0 0,17.446 z" /></g><g
             transform="translate(323.8594,17.6182)"
             id="g3965"><path
               id="path3967"
               style="fill:#918f90;fill-opacity:1;fill-rule:nonzero;stroke:none"
               d="m 0,0 2.624,0 c 4.299,0 6.674,2.075 6.674,6.573 0,4.074 -2.775,6.474 -6.374,6.474 L 0,13.047 0,0 z m -2.5,15.246 5.149,0 c 5.174,0 9.297,-3.199 9.297,-8.572 0,-5.849 -3.549,-8.873 -9.297,-8.873 l -5.149,0 0,17.445 z" /></g><path
             id="path3969"
             style="fill:#918f90;fill-opacity:1;fill-rule:nonzero;stroke:none"
             d="m 340.935,32.864 2.499,0 0,-17.445 -2.499,0 0,17.445 z" /><path
             id="path3971"
             style="fill:#918f90;fill-opacity:1;fill-rule:nonzero;stroke:none"
             d="m 349.259,32.864 2.499,0 0,-17.445 -2.499,0 0,17.445 z m 2.05,3.699 2.874,0 -3.275,-2.699 -1.824,0 2.225,2.699 z" /></g></g></g></g></svg>