<?xml version="1.0" encoding="utf-8"?>
<!-- Generator: Adobe Illustrator 15.0.0, SVG Export Plug-In . SVG Version: 6.00 Build 0)  -->
<!DOCTYPE svg PUBLIC "-//W3C//DTD SVG 1.1//EN" "http://www.w3.org/Graphics/SVG/1.1/DTD/svg11.dtd">
<svg version="1.1" id="Layer_1" xmlns="http://www.w3.org/2000/svg" xmlns:xlink="http://www.w3.org/1999/xlink" x="0px" y="0px"
	 width="606.502px" height="226.77px" viewBox="0 0 606.502 226.77" enable-background="new 0 0 606.502 226.77"
	 xml:space="preserve">
<g>
	<path fill="#FFFFFF" d="M211.81,209.582H19.994V17.763H211.81V209.582z M21.838,207.736h188.127V19.607H21.838V207.736z"/>
	<g>
		<path fill="#FFFFFF" d="M175.462,100.945l4.915-3.586c-1.86-1.991-3.853-4.38-3.853-8.231c0-2.921,1.993-6.109,4.515-7.436
			c-1.327-1.595-3.454-3.055-6.507-3.055c-3.985,0-7.305,2.921-7.305,6.771c0,2.658,1.728,4.915,3.721,5.978
			C170.948,95.102,172.674,98.422,175.462,100.945 M149.171,74.785l4.115-7.304h-6.109c0,1.327-1.194,2.789-2.656,2.789
			c-1.593,0-2.655-1.063-2.655-2.789h-5.447c0,1.593-1.193,2.789-2.655,2.789c-1.46,0-2.654-1.195-2.654-2.789h-6.111l3.587,7.038
			c2.791-0.265,5.445-0.397,8.1-0.397C141.599,74.122,145.85,74.385,149.171,74.785 M138.014,139.59
			c-0.665-1.194-1.328-2.657-1.328-5.312c0-3.451,1.991-6.374,6.242-8.233c2.789-1.328,4.911-2.524,8.631-4.382
			c8.764-4.516,11.818-13.015,11.818-21.777c0-4.385-1.193-7.837-2.655-10.758c0.396,2.388,0.795,4.381,0.795,6.772
			c0,9.164-3.186,15.937-11.552,20.052c-5.31,2.655-7.969,3.717-11.157,5.311c-4.511,2.392-7.037,5.447-7.037,9.164
			C131.771,135.074,134.162,138.526,138.014,139.59 M132.834,137.863c-1.458-1.462-3.053-4.117-3.053-7.568
			c0-4.384,2.922-8.101,8.1-10.758c4.515-2.127,7.169-3.188,11.154-5.047c8.367-4.116,10.888-11.153,10.888-18.723
			c0-7.303-2.389-11.024-4.379-13.413c1.458,2.789,1.858,6.11,1.858,8.897c0,8.102-2.39,15.139-11.819,18.859
			c-4.782,1.991-7.834,2.655-11.952,4.513c-6.509,3.057-9.029,6.64-9.029,11.951C124.602,131.621,127.789,136.401,132.834,137.863
			 M127.789,136.799c-2.259-1.857-5.182-4.911-5.182-10.357c0-5.71,2.391-9.959,9.828-13.146c4.784-1.992,7.306-2.921,11.821-4.648
			c9.561-3.583,11.553-10.625,11.553-17.529c0-6.64-2.389-10.491-5.311-13.013c1.725,2.122,2.788,5.71,2.788,9.428
			c0,8.764-3.321,13.677-12.749,16.997c-3.852,1.195-7.967,2.392-12.218,3.985c-7.701,2.921-11.686,7.171-11.686,14.342
			C116.634,130.295,122.346,135.871,127.789,136.799 M122.476,135.871c-5.311-2.655-7.835-8.367-7.835-13.413
			c0-7.304,4.517-12.483,12.085-15.272c4.651-1.727,8.366-2.785,13.015-4.38c9.03-3.188,11.951-7.437,11.951-15.537
			c0-4.648-1.727-8.632-4.515-10.89c0.931,1.063,1.194,2.39,1.194,3.585c0,2.257-1.194,3.32-2.921,3.32
			c-1.061,0-2.127-0.664-2.257-1.727c0.531,0.398,0.93,0.534,1.463,0.534c1.458,0,2.255-1.064,2.255-2.526
			c0-2.257-2.125-3.452-4.25-3.716c-1.859-0.267-3.852-0.267-6.107-0.267c-2.256,0-4.382,0.131-7.172,0.267
			c1.729,2.388,7.438,1.724,9.165,2.921c-1.462-0.133-2.92-0.133-4.384,0.265c0,0.93-0.398,1.993-1.327,1.993
			c-1.725,0-2.521-1.858-3.718-5.179l-6.77,0.531c-1.066,0.133-1.464,0.532-1.332,1.327l0.665,6.642
			c0,0.263,0.267,0.395,0.533,0.395c0.264,0,0.528-0.132,0.663-0.53c0.264-0.531,1.064-1.727,3.054-1.727
			c2.921,0,5.181,2.657,5.312,5.711c-1.064-1.461-3.452-2.791-7.437-2.791c-3.053,0-5.577,0.931-9.562,0.931
			c-4.248,0-6.64-1.594-6.64-3.586c0-0.929,0.132-1.46,0.665-2.124c-1.727,0.797-3.055,2.257-3.055,4.648
			c0,2.921,2.126,5.975,8.364,5.975c5.712,0,8.37-3.587,13.545-3.587c2.392,0,3.588,1.196,3.588,2.526
			c0,1.194-1.063,2.258-2.921,2.258c-2.259,0-3.85-1.197-4.649-2.391c-0.133-0.267-0.264-0.4-0.532-0.4
			c-0.395,0-0.53,0.264-0.53,0.533l0.135,6.373c0,0.795,0.395,1.194,1.327,1.064c3.983-0.399,8.099-0.932,11.953-1.197
			c7.169-0.664,12.085-5.444,12.085-10.757c0-0.797,0-1.461-0.134-2.258c0.665,1.062,0.928,2.126,0.928,3.453
			c0,4.916-2.655,8.631-11.152,10.888c-4.515,1.196-7.837,1.729-11.689,2.658c-10.225,2.39-16.862,10.223-16.862,18.989
			C108.667,127.504,114.376,134.811,122.476,135.871 M77.988,87.931c0.534-1.195,0.666-2.257,0.666-3.055
			c0-1.727-0.797-3.319-1.594-3.983c1.992,0,3.719,1.46,3.719,3.455C80.779,86.207,79.583,87.4,77.988,87.931 M102.424,119.537
			l4.248-2.257c1.461-8.897,6.773-15.138,16.068-17.395c-4.91,0.263-9.163,0.395-15.137,0.661
			c-6.373,0.267-16.864,1.064-24.167,1.597c-1.464,0.13-2.392-0.399-2.79-1.597c-0.399-1.325-1.195-3.851-1.327-5.31
			c-0.134-1.196,0.132-1.994,1.194-2.788c2.123-1.462,4.25-3.19,4.25-6.774c0-3.852-3.321-6.374-6.376-6.374
			c-1.061,0-1.858,0.134-2.521,0.398c-0.798-0.529-1.594-0.929-3.188-0.929c-2.258,0-4.249,1.458-4.781,2.655
			c-3.85-0.266-6.904,2.524-6.64,6.24c0.531-0.53,1.595-1.058,2.79-1.058c1.458,0,2.788,1.058,2.788,2.652
			c0,1.463-0.266,3.321-0.266,5.312c0,6.109,4.915,9.297,4.915,12.482c0,1.595-1.195,2.922-2.792,2.922
			c0.931,3.321,3.986,5.048,8.102,5.048c2.658,0,5.048-0.266,8.897-0.266C96.715,114.757,101.494,115.952,102.424,119.537
			 M143.323,157.119h1.333c-0.135-4.249-1.197-7.172-2.922-10.226c-0.933-1.726-2.126-3.586-3.057-4.781
			c-0.531-0.799-1.195-1.062-1.991-1.062c-0.533,0-0.93,0.397-0.533,1.062c1.065,1.727,2.523,4.382,4.384,8.499
			c-1.594,0.267-1.992,1.061-1.992,2.389C138.546,155.127,140.538,157.119,143.323,157.119 M72.812,88.464
			c0.131-3.721-1.461-5.712-3.719-6.642c0.398-0.131,0.928-0.398,1.725-0.398c1.728,0,3.587,1.46,3.587,3.719
			C74.405,86.337,74.005,87.664,72.812,88.464 M157.935,181.951c-0.532-1.192-2.259-2.391-4.384-2.391
			c-1.197,0-1.992,0.265-2.522,0.533c0.132-1.062,1.194-2.258,3.319-2.258C156.87,177.836,158.197,179.825,157.935,181.951
			 M157.136,187.66c-0.795-0.929-2.123-1.725-3.85-1.725c-2.125,0-3.188,0.931-3.72,1.595c-0.265-1.595,1.063-3.585,3.587-3.585
			C155.809,183.945,157.136,185.803,157.136,187.66 M62.719,124.317c0.929-2.258,3.055-3.851,5.577-4.38
			c0.531-0.8,1.194-1.464,1.861-1.993l-4.515-18.859c-0.534-1.328-0.933-2.655-0.933-4.515c0-1.992,0.399-3.984,0.399-5.045
			c0-0.931-0.53-1.195-1.061-1.195c-0.399,0-0.666,0-0.797,0.133v0.529c0,3.055-1.86,5.445-4.916,5.445
			c-3.053,0-5.445-2.522-5.445-5.445c0-2.92,2.392-5.311,5.445-5.311c0.531,0,1.197,0,1.991,0.267
			c0.932-2.392,3.852-4.515,6.905-4.116c-2.123-2.657-5.311-4.252-8.896-4.252c-7.7,0-13.81,5.578-13.81,13.412
			c0,7.305,5.976,13.149,13.412,13.279L62.719,124.317z M83.302,152.87c1.992,0,4.117-1.064,6.107-3.056
			c3.585-3.452,8.633-8.631,11.688-10.624c2.655-1.727,4.381-2.392,6.106-2.392c1.064,0,1.863,0.27,2.657,1.064l4.516-3.452
			c-5.18-3.853-7.571-8.9-7.704-15.138c-7.169,3.849-12.349,9.161-18.326,14.208c-1.06,0.796-1.591,1.193-2.522,1.193
			c-0.93,0-1.727-0.929-3.321-2.521c-1.327-1.327-1.594-2.127-1.594-3.054c0-1.596,0.533-2.126,0.533-4.253
			c0-4.246-3.319-6.637-6.507-6.637c-2.657,0-4.646,1.459-5.312,3.32c-3.587,0.265-5.842,2.922-5.842,5.708
			c0,0.665,0.134,1.196,0.267,1.594c-1.328,0.798-2.657,2.392-2.657,4.516c0,2.258,1.194,4.384,3.187,5.048
			c-0.266-0.399-0.4-0.932-0.4-1.597c0-1.193,1.065-2.258,2.524-2.258c1.195,0,1.991,0.4,2.921,1.463
			c1.194,1.595,2.392,3.053,4.382,4.78c1.86,1.594,3.982,2.657,5.976,3.852c1.195,0.797,2.125,1.858,2.125,3.453
			c0,1.062-0.797,2.258-2.392,2.655C80.379,152.205,81.708,152.87,83.302,152.87 M75.732,126.974
			c-0.133-2.656-2.125-4.779-4.648-5.312c0.4-0.267,1.062-0.663,2.126-0.663c1.857,0,3.319,1.591,3.319,3.318
			C76.529,125.646,76.129,126.312,75.732,126.974 M90.474,196.825c-0.534-0.664-0.796-1.327-0.796-2.127
			c0-1.593,1.328-2.788,3.184-2.788c2.921,0,4.515,3.188,8.369,3.188c4.382,0,6.505-3.188,10.489-3.188
			c1.993,0,4.783,1.195,4.783,3.721c0,0.397-0.135,0.794-0.4,1.06c4.516,0,7.702-3.85,7.702-10.224
			c0-8.899-0.265-12.482-0.397-17.395c3.455-0.135,6.771-1.863,6.24-7.306c-0.93,0.797-1.991,1.195-3.185,1.195
			c-1.595,0-2.788-1.195-2.788-2.92c0-0.8,0-1.728,0.131-2.657l15.537-0.4c-1.46-0.795-2.522-2.391-2.522-4.249
			c0-1.327,0.531-2.257,1.594-2.788c-1.46-3.054-2.656-5.442-4.115-7.7c-0.798-1.196-1.727-2.391-3.587-2.391
			c-4.115-0.135-12.483,1.061-16.733,2.521c-3.186,1.063-6.242,3.454-6.242,8.897c0,5.045,1.726,13.943,1.593,27.888
			c0,1.991-0.528,2.655-1.725,2.92c-1.062,0.268-3.851,0.533-5.578,0.268c-0.928-0.135-1.728-0.799-2.257-2.79
			c-0.665-2.787-2.653-5.576-6.639-5.576c-3.587,0-6.772,2.654-6.243,6.64c-1.724,1.063-2.523,2.789-2.523,4.38
			c0,1.597,0.531,2.922,1.194,3.721c-0.395,0.928-0.529,1.459-0.529,2.391C85.029,194.433,87.951,196.825,90.474,196.825
			 M71.748,130.559c-0.797-1.592-2.523-2.521-4.517-2.521c-0.796,0-1.457,0.132-1.989,0.265c0.263-1.063,1.459-1.99,3.188-1.99
			C70.688,126.312,72.146,128.037,71.748,130.559 M94.988,181.951c-0.532-1.192-2.258-2.391-4.382-2.391
			c-1.197,0-1.993,0.265-2.522,0.533c0.131-1.062,1.195-2.258,3.319-2.258C93.924,177.836,95.252,179.825,94.988,181.951
			 M83.7,193.504c-0.398-0.796-0.531-1.594-0.531-2.389c0-0.798,0.133-1.463,0.399-2.127c-0.666-1.194-1.065-2.521-1.065-3.984
			c0-1.988,0.933-3.85,2.26-5.044l-8.234-35.724c-1.329-0.662-2.657-1.459-3.718-2.389c-1.861-1.594-2.922-2.791-4.648-4.779
			c-0.533-0.533-0.932-0.8-1.461-0.8c-0.796,0-1.327,0.53-1.06,1.595l1.726,8.233l3.583,2.523l9.959,42.76L83.7,193.504z
			 M94.193,187.66c-0.8-0.929-2.127-1.725-3.854-1.725c-2.125,0-3.188,0.931-3.718,1.595c-0.264-1.595,1.063-3.585,3.587-3.585
			C92.862,183.945,94.193,185.803,94.193,187.66 M28.589,197.62l8.101-6.24l9.962-42.76l3.583-2.523l7.969-34.26l-1.727-7.969
			c-1.993-0.4-3.721-0.931-5.179-1.725L28.589,197.62z M153.42,196.825c-0.533-0.664-0.797-1.327-0.797-2.127
			c0-1.593,1.325-2.788,3.186-2.788c2.921,0,4.515,3.188,8.366,3.188c4.38,0,6.507-3.188,10.489-3.188
			c1.993,0,4.782,1.195,4.782,3.721c0,0.397-0.134,0.794-0.397,1.06c4.515,0,7.701-3.85,7.701-10.224
			c0-8.5-0.795-17.928-1.728-27.357c2.394-0.531,4.648-2.92,4.648-5.975c0-1.063-0.395-2.257-1.061-3.32
			c-0.666,0.93-1.86,1.729-3.849,2.257c-2.791,0.799-6.244,1.197-8.768,1.197c-5.71,0-7.568-0.398-10.223-1.197
			c-0.136-3.584-2.392-6.508-4.516-8.497c3.32,1.325,4.78,1.989,10.092,1.989c16.998,0,27.488-11.418,27.488-24.433
			c0-9.43-5.976-13.81-11.418-17l-5.046,3.586c6.107,2.79,10.089,6.906,10.089,12.484c0,6.11-4.911,10.491-10.621,10.491
			c-6.109,0-10.89-4.381-10.89-10.36c0-4.514,2.123-7.832,6.108-11.022c3.983-3.185,10.093-7.038,13.413-10.622
			c1.727-1.859,3.187-4.781,3.055-7.039c2.256-1.062,3.982-3.318,3.982-6.242c0-3.85-3.716-6.771-7.701-6.771
			c-2.39,0-5.045,1.46-6.377,3.055c2.392,0.929,4.65,4.115,4.65,7.436c0,2.788-1.725,5.179-3.718,7.17
			c-3.055,3.055-7.038,5.312-11.421,8.897c-5.313,4.384-8.5,9.562-8.5,15.406c0,8.099,6.242,15.668,16.068,15.668
			c3.189,0,5.711-0.663,7.571-1.857c-3.187,3.715-9.162,5.577-15.404,5.577c-5.447,0-9.163-0.798-13.146-3.72
			c-3.588-2.655-6.375-8.896-6.243-13.544c-2.921,1.728-6.375,3.319-9.297,4.648c-4.117,1.989-5.443,4.115-5.443,7.701
			c0,4.782,3.32,8.5,4.777,11.288c1.993,3.585,2.66,6.772,2.922,10.092c0.797,8.103,5.446,11.818,13.678,11.818
			c3.72,0,8.631-0.264,10.624-0.53c0.798,3.719,1.728,8.101,1.728,11.421c0,1.991-0.533,2.655-1.728,2.92
			c-1.061,0.268-3.848,0.533-5.576,0.268c-0.928-0.135-1.727-0.799-2.259-2.79c-0.662-2.787-2.652-5.576-6.638-5.576
			c-3.586,0-6.773,2.654-6.242,6.64c-1.725,1.063-2.524,2.789-2.524,4.38c0,1.597,0.53,2.922,1.197,3.721
			c-0.397,0.928-0.533,1.459-0.533,2.391C147.972,194.433,150.896,196.825,153.42,196.825"/>
		<path fill="#FFFFFF" d="M512.197,209.584h18.926v-6.257h-11.016v-4.439h10.653v-6.093h-10.653v-4.399h11.016v-6.255h-18.926
			V209.584z M484.596,209.584h21.549v-6.418h-11.866l11.664-15.253v-5.772h-21.107v6.416h11.22l-11.459,14.974V209.584z
			 M465.465,198.284l2.704-10.13h0.363l2.703,10.13H465.465z M474.262,209.584h8.114l-8.233-27.443h-11.582l-8.192,27.443h8.11
			l1.496-5.69h8.754L474.262,209.584z M437.056,194.812v-6.817h3.187c2.139,0,3.39,1.652,3.39,3.388c0,1.736-1.251,3.43-3.39,3.43
			H437.056z M429.146,209.584h7.91v-9.646h2.017l4.763,9.646h8.917l-5.045-8.474c-0.521-0.892-1.17-1.697-1.533-1.94l0.041-0.162
			c2.42-1.088,5.853-3.145,5.853-7.826c0-4.925-3.913-9.041-10.333-9.041h-12.589V209.584z M408.848,194.812v-6.777h3.105
			c1.734,0,3.31,1.45,3.31,3.389c0,1.977-1.575,3.389-3.31,3.389H408.848z M400.938,209.584h7.91v-8.878h4.034
			c6.418,0,10.413-4.077,10.413-9.12c0-5.046-3.995-9.445-10.413-9.445h-11.944V209.584z M366.716,209.584h10.816l8.23-27.443
			h-8.878l-4.682,20.541h-0.16l-4.683-20.541h-8.877L366.716,209.584z M332.614,209.584h7.91v-21.027h6.821v-6.416h-21.591v6.416
			h6.859V209.584z M308.967,210.229c6.456,0,11.824-3.106,11.824-10.774v-17.314h-7.909v16.586c0,3.106-1.697,4.481-3.915,4.481
			s-3.914-1.375-3.914-4.481v-16.586h-7.91v17.314C297.143,207.123,302.512,210.229,308.967,210.229 M273.254,209.584h10.815
			l8.232-27.443h-8.879l-4.682,20.541h-0.163l-4.679-20.541h-8.878L273.254,209.584z M254.083,210.025
			c3.27,0,6.013-0.846,7.67-1.692v-6.902c-1.574,0.849-3.391,1.574-6.256,1.574c-2.864,0-7.021-2.18-7.021-7.142
			c0-4.965,3.792-7.307,7.464-7.307c2.502,0,4.24,0.565,5.771,1.333v-6.82c-1.614-0.726-3.631-1.291-6.859-1.291
			c-8.113,0-15.013,5.327-15.013,14.085C239.838,204.62,246.014,210.025,254.083,210.025 M249.847,180.486h8.312l5.532-6.217h-6.861
			l-2.746,2.988h-0.16l-2.745-2.988h-6.859L249.847,180.486z"/>
		<path fill="#FFFFFF" d="M516.716,168.488h7.91v-27.441h-7.91V168.488z M516.473,139.393h6.698l5.69-6.213h-9.201L516.473,139.393z
			 M500.734,168.488h7.91v-27.441h-7.91V168.488z M483.946,169.134c4.883,0,8.274-1.494,9.927-2.34v-12.147h-7.707v7.428
			c-0.563,0.118-1.17,0.199-1.775,0.199c-3.067,0-6.455-2.34-6.455-7.505c0-5.567,2.984-8.312,8.11-8.312
			c2.822,0,5.247,0.968,6.739,1.774v-6.456c-1.615-0.728-4.279-1.736-7.908-1.736c-9.325,0-15.576,5.771-15.576,14.73
			C469.301,163.726,476.279,169.134,483.946,169.134 M450.773,162.113c-3.509,0-5.282-2.826-5.282-7.345
			c0-4.521,1.773-7.345,5.282-7.345c3.552,0,5.208,2.823,5.208,7.345C455.981,159.287,454.325,162.113,450.773,162.113
			 M450.773,169.134c8.192,0,13.684-5.203,13.684-14.365c0-9.161-5.491-14.368-13.684-14.368c-8.149,0-13.759,5.207-13.759,14.368
			C437.015,163.931,442.624,169.134,450.773,169.134 M416.474,168.488h17.715v-6.494h-9.806v-20.947h-7.909V168.488z
			 M396.337,162.113c-3.512,0-5.287-2.826-5.287-7.345c0-4.521,1.775-7.345,5.287-7.345c3.552,0,5.204,2.823,5.204,7.345
			C401.541,159.287,399.889,162.113,396.337,162.113 M396.337,169.134c8.191,0,13.681-5.203,13.681-14.365
			c0-9.161-5.489-14.368-13.681-14.368c-8.154,0-13.765,5.207-13.765,14.368C382.572,163.931,388.183,169.134,396.337,169.134
			 M350.129,168.488h7.908v-16.466h0.124l8.312,16.466h9.646v-27.441h-7.911v16.384h-0.119l-8.234-16.384h-9.725V168.488z
			 M318.128,141.047v27.441h7.912v-10.734h8.109v10.734h7.909v-27.441h-7.909v10.496h-8.109v-10.496H318.128z M304.489,168.934
			c3.265,0,6.01-0.848,7.668-1.697v-6.898c-1.575,0.847-3.392,1.573-6.259,1.573c-2.864,0-7.021-2.179-7.021-7.143
			s3.795-7.304,7.468-7.304c2.502,0,4.236,0.564,5.77,1.332v-6.822c-1.616-0.727-3.632-1.291-6.862-1.291
			c-8.11,0-15.011,5.326-15.011,14.085C290.242,163.524,296.416,168.934,304.489,168.934 M265.708,168.488h18.926v-6.255h-11.018
			v-4.439h10.654V151.7h-10.654v-4.397h11.018v-6.256h-18.926V168.488z M245.811,168.488h7.911v-21.023h6.817v-6.418H238.95v6.418
			h6.861V168.488z"/>
		<path fill="#FFFFFF" d="M547.749,99.954v27.442h7.909v-10.734h8.111v10.734h7.91V99.954h-7.91v10.492h-8.111V99.954H547.749z
			 M534.107,127.84c3.271,0,6.017-0.849,7.668-1.693v-6.903c-1.575,0.847-3.389,1.574-6.254,1.574s-7.022-2.18-7.022-7.144
			c0-4.962,3.794-7.304,7.466-7.304c2.502,0,4.235,0.567,5.77,1.332v-6.819c-1.61-0.725-3.631-1.292-6.858-1.292
			c-8.112,0-15.013,5.328-15.013,14.083C519.863,122.432,526.037,127.84,534.107,127.84 M505.495,127.396h7.912V99.952h-7.912
			V127.396z M505.256,98.298h6.697l5.69-6.213h-9.198L505.256,98.298z M471.438,127.396h7.908v-16.464h0.119l8.316,16.464h9.644
			V99.954h-7.909v16.385h-0.118l-8.234-16.385h-9.726V127.396z M457.797,127.84c3.27,0,6.013-0.849,7.668-1.693v-6.903
			c-1.575,0.847-3.39,1.574-6.255,1.574c-2.864,0-7.021-2.18-7.021-7.144c0-4.962,3.793-7.304,7.466-7.304
			c2.502,0,4.235,0.567,5.77,1.332v-6.819c-1.614-0.725-3.631-1.292-6.859-1.292c-8.112,0-15.012,5.328-15.012,14.083
			C443.553,122.432,449.727,127.84,457.797,127.84 M453.562,98.298h8.312l5.529-6.213h-6.86l-2.745,2.987h-0.16l-2.743-2.987h-6.862
			L453.562,98.298z M423.615,116.097l2.706-10.131h0.361l2.705,10.131H423.615z M432.413,127.396h8.112l-8.231-27.442H420.71
			l-8.192,27.442h8.111l1.494-5.688h8.758L432.413,127.396z M378.337,127.396h7.548v-16.748h0.121l7.101,11.662h0.567l6.778-11.701
			h0.122v16.787h7.706V99.954h-9.159l-5.65,9.728h-0.122l-5.649-9.728h-9.362V127.396z M356.91,112.626v-6.822h3.188
			c2.138,0,3.389,1.655,3.389,3.391c0,1.736-1.251,3.431-3.389,3.431H356.91z M348.999,127.396h7.911v-9.646h2.017l4.762,9.646
			h8.921l-5.046-8.475c-0.527-0.888-1.172-1.695-1.533-1.938l0.039-0.161c2.422-1.089,5.851-3.149,5.851-7.831
			c0-4.922-3.913-9.038-10.331-9.038h-12.59V127.396z M328.862,121.019c-3.512,0-5.287-2.824-5.287-7.345
			c0-4.519,1.775-7.345,5.287-7.345c3.551,0,5.205,2.826,5.205,7.345C334.067,118.194,332.413,121.019,328.862,121.019
			 M328.862,128.041c8.192,0,13.68-5.206,13.68-14.368c0-9.16-5.487-14.366-13.68-14.366c-8.153,0-13.764,5.206-13.764,14.366
			C315.099,122.835,320.709,128.041,328.862,128.041 M291.491,99.954v27.442h7.911v-10.613h10.734v-6.093h-10.734v-4.48h10.855
			v-6.256H291.491z M257.434,127.396h7.91v-16.464h0.121l8.315,16.464h9.643V99.954h-7.911v16.385h-0.119l-8.234-16.385h-9.725
			V127.396z M241.453,127.396h7.91V99.952h-7.91V127.396z"/>
		<path fill="#FFFFFF" d="M404.771,75.002l2.702-10.129h0.366l2.703,10.129H404.771z M413.57,86.302h8.111l-8.234-27.442h-11.581
			l-8.192,27.442h8.11l1.495-5.69h8.757L413.57,86.302z M378.823,86.302h7.909V65.276h6.818V58.86h-21.589v6.416h6.861V86.302z
			 M354.772,86.302h17.715v-6.499h-9.806V58.86h-7.909V86.302z M335.077,86.948c6.458,0,11.827-3.107,11.827-10.775V58.86h-7.911
			v16.585c0,3.109-1.695,4.48-3.916,4.48s-3.913-1.371-3.913-4.48V58.86h-7.909v17.313C323.255,83.84,328.62,86.948,335.077,86.948
			 M319.54,86.302l-9.28-14.165l9.162-13.277h-9.646l-7.667,12.632V58.86h-7.911v27.442h7.911V73.105l7.949,13.197H319.54z
			 M273.051,75.002l2.704-10.129h0.363l2.706,10.129H273.051z M281.849,86.302h8.111l-8.231-27.442h-11.584l-8.192,27.442h8.111
			l1.496-5.69h8.757L281.849,86.302z M241.453,58.86v27.442h7.91V75.688h10.733v-6.094h-10.733v-4.477h10.855V58.86H241.453z"/>
	</g>
</g>
</svg>
